<svg width="11" height="11" viewBox="0 0 11 11" fill="none" xmlns="http://www.w3.org/2000/svg">
<path d="M8.58879 9.44381L2.43837 9.46368C2.20534 9.46444 1.98156 9.37259 1.81625 9.20835C1.65094 9.0441 1.55765 8.82092 1.55689 8.58789L1.53702 2.43747C1.53627 2.20444 1.62811 1.98066 1.79236 1.81535C1.9566 1.65004 2.17978 1.55675 2.41281 1.556L7.24528 1.54038L9.44896 3.72986L9.46458 8.56234C9.46533 8.79536 9.37348 9.01915 9.20924 9.18445C9.045 9.34976 8.82181 9.44305 8.58879 9.44381Z" stroke="#8FA9A0" stroke-linecap="round" stroke-linejoin="round"/>
<path d="M7.71018 9.44662L7.69882 5.93209L3.30566 5.94629L3.31702 9.46082" stroke="#8FA9A0" stroke-linecap="round" stroke-linejoin="round"/>
<path d="M3.29102 1.55298L3.29811 3.74956L6.81264 3.7382" stroke="#8FA9A0" stroke-linecap="round" stroke-linejoin="round"/>
</svg>
