<svg width="18" height="18" viewBox="0 0 18 18" fill="none" xmlns="http://www.w3.org/2000/svg">
<path d="M8.87482 10.8182C9.94801 10.8182 10.818 9.94826 10.818 8.87507C10.818 7.80188 9.94801 6.93188 8.87482 6.93188C7.80163 6.93188 6.93164 7.80188 6.93164 8.87507C6.93164 9.94826 7.80163 10.8182 8.87482 10.8182Z" stroke="black" stroke-width="1.29545" stroke-linecap="round" stroke-linejoin="round"/>
<path d="M13.6682 10.8182C13.582 11.0135 13.5562 11.2303 13.5943 11.4404C13.6324 11.6505 13.7326 11.8444 13.8819 11.997L13.9208 12.0359C14.0412 12.1562 14.1368 12.2991 14.202 12.4564C14.2672 12.6136 14.3007 12.7822 14.3007 12.9524C14.3007 13.1227 14.2672 13.2913 14.202 13.4485C14.1368 13.6058 14.0412 13.7487 13.9208 13.869C13.8005 13.9894 13.6576 14.085 13.5003 14.1502C13.3431 14.2154 13.1745 14.2489 13.0043 14.2489C12.834 14.2489 12.6654 14.2154 12.5082 14.1502C12.3509 14.085 12.208 13.9894 12.0877 13.869L12.0489 13.8301C11.8962 13.6808 11.7023 13.5806 11.4922 13.5425C11.2821 13.5044 11.0654 13.5301 10.87 13.6164C10.6784 13.6985 10.515 13.8348 10.3999 14.0086C10.2849 14.1824 10.2231 14.386 10.2223 14.5944V14.7045C10.2223 15.0481 10.0858 15.3776 9.84284 15.6206C9.5999 15.8635 9.27039 16 8.92682 16C8.58324 16 8.25374 15.8635 8.01079 15.6206C7.76785 15.3776 7.63136 15.0481 7.63136 14.7045V14.6462C7.62635 14.4319 7.55695 14.2239 7.43219 14.0495C7.30744 13.8751 7.13309 13.7422 6.93182 13.6682C6.73645 13.582 6.51974 13.5562 6.30962 13.5943C6.0995 13.6324 5.90561 13.7326 5.75295 13.8819L5.71409 13.9208C5.59378 14.0412 5.4509 14.1368 5.29364 14.202C5.13637 14.2672 4.9678 14.3007 4.79756 14.3007C4.62731 14.3007 4.45874 14.2672 4.30147 14.202C4.14421 14.1368 4.00134 14.0412 3.88102 13.9208C3.76058 13.8005 3.66502 13.6576 3.59983 13.5003C3.53464 13.3431 3.50108 13.1745 3.50108 13.0043C3.50108 12.834 3.53464 12.6654 3.59983 12.5082C3.66502 12.3509 3.76058 12.208 3.88102 12.0877L3.91989 12.0489C4.06921 11.8962 4.16938 11.7023 4.20748 11.4922C4.24558 11.2821 4.21986 11.0654 4.13364 10.87C4.05153 10.6784 3.91519 10.515 3.74141 10.3999C3.56764 10.2849 3.364 10.2231 3.15557 10.2223H3.04545C2.70188 10.2223 2.37237 10.0858 2.12943 9.84284C1.88649 9.5999 1.75 9.27039 1.75 8.92682C1.75 8.58324 1.88649 8.25374 2.12943 8.01079C2.37237 7.76785 2.70188 7.63136 3.04545 7.63136H3.10375C3.31814 7.62635 3.52607 7.55695 3.7005 7.43219C3.87493 7.30744 4.00779 7.13309 4.08182 6.93182C4.16804 6.73645 4.19376 6.51974 4.15566 6.30962C4.11756 6.0995 4.01739 5.90561 3.86807 5.75295L3.8292 5.71409C3.70876 5.59378 3.61321 5.4509 3.54801 5.29364C3.48282 5.13637 3.44926 4.9678 3.44926 4.79756C3.44926 4.62731 3.48282 4.45874 3.54801 4.30147C3.61321 4.14421 3.70876 4.00134 3.8292 3.88102C3.94952 3.76058 4.09239 3.66502 4.24966 3.59983C4.40692 3.53464 4.5755 3.50108 4.74574 3.50108C4.91598 3.50108 5.08455 3.53464 5.24182 3.59983C5.39909 3.66502 5.54196 3.76058 5.66227 3.88102L5.70114 3.91989C5.85379 4.06921 6.04768 4.16938 6.2578 4.20748C6.46792 4.24558 6.68463 4.21986 6.88 4.13364H6.93182C7.1234 4.05153 7.28678 3.91519 7.40187 3.74141C7.51695 3.56764 7.57871 3.364 7.57955 3.15557V3.04545C7.57955 2.70188 7.71603 2.37237 7.95898 2.12943C8.20192 1.88649 8.53142 1.75 8.875 1.75C9.21858 1.75 9.54808 1.88649 9.79102 2.12943C10.034 2.37237 10.1705 2.70188 10.1705 3.04545V3.10375C10.1713 3.31218 10.233 3.51582 10.3481 3.6896C10.4632 3.86338 10.6266 3.99971 10.8182 4.08182C11.0135 4.16804 11.2303 4.19376 11.4404 4.15566C11.6505 4.11756 11.8444 4.01739 11.997 3.86807L12.0359 3.8292C12.1562 3.70876 12.2991 3.61321 12.4564 3.54801C12.6136 3.48282 12.7822 3.44926 12.9524 3.44926C13.1227 3.44926 13.2913 3.48282 13.4485 3.54801C13.6058 3.61321 13.7487 3.70876 13.869 3.8292C13.9894 3.94952 14.085 4.09239 14.1502 4.24966C14.2154 4.40692 14.2489 4.5755 14.2489 4.74574C14.2489 4.91598 14.2154 5.08455 14.1502 5.24182C14.085 5.39909 13.9894 5.54196 13.869 5.66227L13.8301 5.70114C13.6808 5.85379 13.5806 6.04768 13.5425 6.2578C13.5044 6.46792 13.5301 6.68463 13.6164 6.88V6.93182C13.6985 7.1234 13.8348 7.28678 14.0086 7.40187C14.1824 7.51695 14.386 7.57871 14.5944 7.57955H14.7045C15.0481 7.57955 15.3776 7.71603 15.6206 7.95898C15.8635 8.20192 16 8.53142 16 8.875C16 9.21858 15.8635 9.54808 15.6206 9.79102C15.3776 10.034 15.0481 10.1705 14.7045 10.1705H14.6462C14.4378 10.1713 14.2342 10.233 14.0604 10.3481C13.8866 10.4632 13.7503 10.6266 13.6682 10.8182Z" stroke="black" stroke-width="1.29545" stroke-linecap="round" stroke-linejoin="round"/>
</svg>
