<svg width="500" height="757" viewBox="0 0 500 757" fill="none" xmlns="http://www.w3.org/2000/svg">
<rect width="500" height="757" rx="10" fill="#DDE8F0"/>
<circle cx="250" cy="230" r="180" fill="#98BAD2"/>
<path d="M189.769 220.062L249.563 231.354V299.361L189.769 285.76V220.062Z" fill="#E4EDF3"/>
<path d="M309.357 220.062L249.563 231.354V299.361L309.357 285.76V220.062Z" fill="#EFF4F8"/>
<path d="M203.627 212.62L249.563 231.354V265.229C237.934 241.894 225.496 231.686 189.769 220.062C195.981 217.35 198.903 215.762 203.627 212.62Z" fill="#6A8EA6"/>
<path d="M295.499 212.62L249.563 231.354V265.229C261.192 241.894 273.63 231.686 309.357 220.062C303.145 217.35 300.222 215.762 295.499 212.62Z" fill="#4F6A7D"/>
<path d="M171.034 289.609C187.459 266.771 221.077 260.866 249.82 283.448V314.502V315.271C217.201 294.577 199.856 287.068 171.034 289.609Z" fill="#D6E3ED"/>
<path d="M171.034 289.609C175.397 283.963 178.733 280.371 185.919 276.008C209.272 280.371 216.458 281.397 249.82 300.388V314.501V315.271C217.201 294.577 199.856 287.067 171.034 289.609Z" fill="#BDCCD4"/>
<path d="M328.605 289.607C312.181 266.769 278.563 260.864 249.82 283.446V314.5V315.27C282.439 294.575 299.784 287.066 328.605 289.607Z" fill="#D6E3ED"/>
<path d="M328.605 289.609C324.243 283.963 320.907 280.371 313.721 276.008C290.368 280.371 283.182 281.397 249.82 300.388V314.501V315.271C282.439 294.577 299.784 287.067 328.605 289.609Z" fill="#BDCCD4"/>
<path d="M323.729 200.44L333.481 196.015V269.746L323.729 250.242V200.44Z" fill="#D6E3ED"/>
<path d="M345.287 190.704L333.482 196.016V269.746L345.287 247.932V190.704Z" fill="#EFF4F8"/>
<path d="M153.327 184.801L249.564 145.241L249.564 224.361L153.327 184.801Z" fill="#6A8EA6"/>
<path d="M345.8 184.801L249.563 145.241L249.563 224.361L345.8 184.801Z" fill="#D6E3ED"/>
<path d="M153.327 184.801L249.564 224.322V231.508L153.327 191.987V184.801Z" fill="#4F6A7D"/>
<path d="M345.8 184.801L249.563 224.322V231.508L345.8 191.987V184.801Z" fill="#BDCCD4"/>
<path d="M94.2763 460.151C93.3171 460.151 92.4531 460.317 91.6842 460.65C90.9233 460.975 90.2733 461.451 89.7343 462.077C89.2032 462.695 88.795 463.444 88.5096 464.324C88.2242 465.204 88.0815 466.195 88.0815 467.296C88.0815 468.755 88.3075 470.023 88.7593 471.101C89.219 472.171 89.9007 473 90.8044 473.586C91.7159 474.173 92.8534 474.466 94.2168 474.466C94.9936 474.466 95.7229 474.403 96.4046 474.276C97.0942 474.141 97.764 473.975 98.414 473.777V475.536C97.7799 475.774 97.114 475.948 96.4165 476.059C95.7189 476.178 94.8906 476.238 93.9315 476.238C92.1638 476.238 90.6855 475.873 89.4965 475.144C88.3154 474.407 87.4276 473.368 86.8331 472.029C86.2465 470.689 85.9532 469.108 85.9532 467.285C85.9532 465.969 86.1355 464.768 86.5002 463.682C86.8727 462.588 87.4117 461.645 88.1172 460.852C88.8306 460.059 89.7026 459.449 90.733 459.021C91.7714 458.585 92.9604 458.367 94.3001 458.367C95.1799 458.367 96.0281 458.454 96.8445 458.629C97.661 458.803 98.3982 459.053 99.0561 459.378L98.2476 461.09C97.6927 460.836 97.0823 460.618 96.4165 460.436C95.7586 460.246 95.0452 460.151 94.2763 460.151ZM103.401 476V458.617H116.349V476H114.351V460.4H105.422V476H103.401ZM133.261 476L131.121 470.483H124.154L122.025 476H119.98L126.781 458.545H128.601L135.354 476H133.261ZM130.515 468.688L128.482 463.206C128.434 463.064 128.355 462.83 128.244 462.505C128.141 462.18 128.034 461.843 127.923 461.494C127.812 461.145 127.721 460.864 127.649 460.65C127.57 460.975 127.483 461.3 127.388 461.625C127.301 461.942 127.213 462.239 127.126 462.517C127.039 462.786 126.964 463.016 126.9 463.206L124.831 468.688H130.515ZM146.417 460.151C145.458 460.151 144.593 460.317 143.825 460.65C143.064 460.975 142.414 461.451 141.875 462.077C141.344 462.695 140.935 463.444 140.65 464.324C140.365 465.204 140.222 466.195 140.222 467.296C140.222 468.755 140.448 470.023 140.9 471.101C141.359 472.171 142.041 473 142.945 473.586C143.856 474.173 144.994 474.466 146.357 474.466C147.134 474.466 147.863 474.403 148.545 474.276C149.235 474.141 149.904 473.975 150.554 473.777V475.536C149.92 475.774 149.254 475.948 148.557 476.059C147.859 476.178 147.031 476.238 146.072 476.238C144.304 476.238 142.826 475.873 141.637 475.144C140.456 474.407 139.568 473.368 138.973 472.029C138.387 470.689 138.094 469.108 138.094 467.285C138.094 465.969 138.276 464.768 138.641 463.682C139.013 462.588 139.552 461.645 140.258 460.852C140.971 460.059 141.843 459.449 142.873 459.021C143.912 458.585 145.101 458.367 146.44 458.367C147.32 458.367 148.168 458.454 148.985 458.629C149.801 458.803 150.539 459.053 151.196 459.378L150.388 461.09C149.833 460.836 149.223 460.618 148.557 460.436C147.899 460.246 147.186 460.151 146.417 460.151ZM155.565 458.617H157.455V468.664C157.455 469.044 157.451 469.46 157.443 469.912C157.436 470.356 157.424 470.792 157.408 471.22C157.392 471.648 157.372 472.037 157.348 472.385C157.333 472.734 157.317 473.004 157.301 473.194H157.396L167.074 458.617H169.298V476H167.407V466.072C167.407 465.652 167.415 465.208 167.431 464.74C167.447 464.264 167.463 463.805 167.479 463.361C167.503 462.917 167.526 462.521 167.55 462.172C167.574 461.815 167.59 461.542 167.598 461.351H167.491L157.8 476H155.565V458.617ZM175.26 476V458.617H185.473V460.4H177.281V466.012H179.98C181.652 466.012 182.96 466.218 183.904 466.631C184.847 467.043 185.509 467.617 185.889 468.355C186.278 469.092 186.472 469.948 186.472 470.923C186.472 472.524 185.992 473.773 185.033 474.668C184.082 475.556 182.501 476 180.289 476H175.26ZM177.281 474.264H180.075C181.645 474.264 182.754 473.991 183.404 473.444C184.062 472.889 184.391 472.049 184.391 470.923C184.391 470.138 184.233 469.516 183.916 469.056C183.598 468.596 183.099 468.267 182.417 468.069C181.736 467.871 180.84 467.772 179.73 467.772H177.281V474.264ZM206.464 467.285C206.464 468.624 206.293 469.845 205.953 470.947C205.612 472.041 205.104 472.984 204.431 473.777C203.765 474.561 202.937 475.168 201.946 475.596C200.955 476.024 199.805 476.238 198.498 476.238C197.15 476.238 195.973 476.024 194.966 475.596C193.967 475.168 193.135 474.557 192.469 473.765C191.811 472.972 191.316 472.025 190.983 470.923C190.658 469.821 190.496 468.6 190.496 467.261C190.496 465.485 190.789 463.928 191.375 462.588C191.962 461.248 192.85 460.206 194.039 459.461C195.236 458.716 196.734 458.343 198.533 458.343C200.253 458.343 201.7 458.712 202.873 459.449C204.054 460.186 204.946 461.225 205.548 462.564C206.159 463.896 206.464 465.469 206.464 467.285ZM192.624 467.285C192.624 468.759 192.834 470.035 193.254 471.113C193.674 472.191 194.316 473.024 195.18 473.61C196.052 474.197 197.158 474.49 198.498 474.49C199.845 474.49 200.947 474.197 201.803 473.61C202.667 473.024 203.305 472.191 203.717 471.113C204.129 470.035 204.336 468.759 204.336 467.285C204.336 465.041 203.864 463.29 202.921 462.029C201.985 460.761 200.523 460.127 198.533 460.127C197.186 460.127 196.076 460.416 195.204 460.995C194.332 461.573 193.682 462.398 193.254 463.468C192.834 464.53 192.624 465.802 192.624 467.285ZM213.519 473.17L213.674 473.444C213.531 474.022 213.349 474.641 213.127 475.298C212.913 475.956 212.675 476.614 212.414 477.272C212.16 477.938 211.902 478.56 211.641 479.139H210.166C210.333 478.505 210.495 477.835 210.654 477.13C210.813 476.432 210.955 475.742 211.082 475.061C211.217 474.371 211.324 473.741 211.403 473.17H213.519ZM238.736 476H236.727V468.795C235.799 469.128 234.919 469.397 234.087 469.603C233.255 469.809 232.331 469.912 231.317 469.912C229.676 469.912 228.415 469.536 227.536 468.783C226.664 468.022 226.228 466.932 226.228 465.513V458.617H228.249V465.228C228.249 466.187 228.503 466.912 229.01 467.403C229.525 467.887 230.361 468.129 231.519 468.129C232.494 468.129 233.366 468.042 234.135 467.867C234.911 467.685 235.775 467.427 236.727 467.094V458.617H238.736V476ZM250.06 476H248.027V460.4H242.557V458.617H255.506V460.4H250.06V476ZM274.428 467.285C274.428 468.624 274.257 469.845 273.916 470.947C273.575 472.041 273.068 472.984 272.394 473.777C271.729 474.561 270.9 475.168 269.909 475.596C268.919 476.024 267.769 476.238 266.461 476.238C265.114 476.238 263.937 476.024 262.93 475.596C261.931 475.168 261.099 474.557 260.433 473.765C259.775 472.972 259.28 472.025 258.947 470.923C258.622 469.821 258.459 468.6 258.459 467.261C258.459 465.485 258.753 463.928 259.339 462.588C259.926 461.248 260.813 460.206 262.002 459.461C263.199 458.716 264.698 458.343 266.497 458.343C268.217 458.343 269.664 458.712 270.837 459.449C272.018 460.186 272.91 461.225 273.512 462.564C274.122 463.896 274.428 465.469 274.428 467.285ZM260.588 467.285C260.588 468.759 260.798 470.035 261.218 471.113C261.638 472.191 262.28 473.024 263.144 473.61C264.016 474.197 265.122 474.49 266.461 474.49C267.809 474.49 268.911 474.197 269.767 473.61C270.631 473.024 271.269 472.191 271.681 471.113C272.093 470.035 272.299 468.759 272.299 467.285C272.299 465.041 271.828 463.29 270.884 462.029C269.949 460.761 268.487 460.127 266.497 460.127C265.149 460.127 264.04 460.416 263.168 460.995C262.296 461.573 261.646 462.398 261.218 463.468C260.798 464.53 260.588 465.802 260.588 467.285ZM287.064 458.617H291.987C294.159 458.617 295.792 458.942 296.886 459.592C297.979 460.242 298.526 461.347 298.526 462.909C298.526 463.583 298.396 464.189 298.134 464.728C297.88 465.259 297.508 465.699 297.016 466.048C296.525 466.397 295.919 466.639 295.197 466.773V466.892C295.958 467.011 296.632 467.229 297.218 467.546C297.805 467.863 298.265 468.307 298.598 468.878C298.931 469.449 299.097 470.174 299.097 471.054C299.097 472.124 298.847 473.027 298.348 473.765C297.857 474.502 297.159 475.061 296.255 475.441C295.352 475.814 294.282 476 293.045 476H287.064V458.617ZM289.086 466.072H292.415C293.929 466.072 294.975 465.822 295.554 465.323C296.14 464.823 296.434 464.094 296.434 463.135C296.434 462.144 296.085 461.431 295.387 460.995C294.698 460.559 293.596 460.341 292.082 460.341H289.086V466.072ZM289.086 467.772V474.276H292.7C294.246 474.276 295.34 473.975 295.982 473.372C296.624 472.762 296.945 471.942 296.945 470.911C296.945 470.253 296.798 469.69 296.505 469.223C296.22 468.755 295.752 468.398 295.102 468.153C294.46 467.899 293.6 467.772 292.522 467.772H289.086ZM304.024 476V458.617H306.046V466.012H308.828C310.397 466.012 311.646 466.226 312.573 466.654C313.501 467.075 314.167 467.657 314.571 468.402C314.975 469.139 315.177 469.98 315.177 470.923C315.177 472.477 314.686 473.713 313.703 474.633C312.728 475.544 311.194 476 309.101 476H304.024ZM306.046 474.276H308.899C310.334 474.276 311.388 473.999 312.062 473.444C312.744 472.889 313.085 472.049 313.085 470.923C313.085 470.138 312.918 469.52 312.585 469.068C312.26 468.608 311.765 468.283 311.099 468.093C310.441 467.895 309.609 467.796 308.602 467.796H306.046V474.276ZM317.817 476V458.617H319.838V476H317.817ZM325.907 476V458.617H336.12V460.4H327.928V466.012H330.627C332.3 466.012 333.608 466.218 334.551 466.631C335.494 467.043 336.156 467.617 336.537 468.355C336.925 469.092 337.119 469.948 337.119 470.923C337.119 472.524 336.64 473.773 335.681 474.668C334.729 475.556 333.148 476 330.936 476H325.907ZM327.928 474.264H330.722C332.292 474.264 333.402 473.991 334.052 473.444C334.709 472.889 335.038 472.049 335.038 470.923C335.038 470.138 334.88 469.516 334.563 469.056C334.246 468.596 333.746 468.267 333.065 468.069C332.383 467.871 331.487 467.772 330.378 467.772H327.928V474.264ZM346.577 458.617C348.82 458.617 350.457 459.057 351.487 459.937C352.526 460.808 353.045 462.061 353.045 463.694C353.045 464.431 352.922 465.132 352.676 465.798C352.438 466.456 352.05 467.039 351.511 467.546C350.972 468.046 350.263 468.442 349.383 468.735C348.511 469.021 347.441 469.163 346.172 469.163H344.056V476H342.035V458.617H346.577ZM346.386 460.341H344.056V467.427H345.946C347.056 467.427 347.98 467.308 348.717 467.071C349.462 466.833 350.021 466.448 350.393 465.917C350.766 465.378 350.952 464.665 350.952 463.777C350.952 462.62 350.584 461.76 349.846 461.197C349.109 460.626 347.956 460.341 346.386 460.341ZM368.804 476L366.664 470.483H359.696L357.568 476H355.523L362.324 458.545H364.143L370.897 476H368.804ZM366.057 468.688L364.024 463.206C363.976 463.064 363.897 462.83 363.786 462.505C363.683 462.18 363.576 461.843 363.465 461.494C363.354 461.145 363.263 460.864 363.192 460.65C363.112 460.975 363.025 461.3 362.93 461.625C362.843 461.942 362.756 462.239 362.669 462.517C362.581 462.786 362.506 463.016 362.443 463.206L360.374 468.688H366.057ZM386.893 476H384.872V460.4H379.236C379.125 461.288 379.006 462.215 378.88 463.182C378.753 464.15 378.622 465.113 378.487 466.072C378.352 467.031 378.218 467.939 378.083 468.795C377.948 469.651 377.813 470.412 377.679 471.078C377.473 472.179 377.215 473.119 376.906 473.895C376.605 474.664 376.2 475.255 375.693 475.667C375.194 476.071 374.532 476.273 373.707 476.273C373.43 476.273 373.153 476.246 372.875 476.19C372.606 476.135 372.368 476.067 372.162 475.988V474.288C372.344 474.367 372.546 474.434 372.768 474.49C372.998 474.545 373.24 474.573 373.493 474.573C373.993 474.573 374.385 474.375 374.67 473.979C374.964 473.574 375.194 473.063 375.36 472.445C375.534 471.827 375.685 471.192 375.812 470.542C375.915 470.003 376.034 469.322 376.169 468.497C376.303 467.673 376.446 466.738 376.597 465.691C376.747 464.637 376.902 463.511 377.06 462.315C377.227 461.118 377.389 459.885 377.548 458.617H386.893V476ZM392.891 458.617H394.781V468.664C394.781 469.044 394.777 469.46 394.769 469.912C394.762 470.356 394.75 470.792 394.734 471.22C394.718 471.648 394.698 472.037 394.674 472.385C394.658 472.734 394.643 473.004 394.627 473.194H394.722L404.4 458.617H406.624V476H404.733V466.072C404.733 465.652 404.741 465.208 404.757 464.74C404.773 464.264 404.789 463.805 404.805 463.361C404.828 462.917 404.852 462.521 404.876 462.172C404.9 461.815 404.916 461.542 404.924 461.351H404.817L395.126 476H392.891V458.617Z" fill="black" fill-opacity="0.75"/>
<path d="M92.6133 553H91.1997L88.3066 548.283L85.3696 553H84.0439L87.6108 547.419L84.293 542.292H85.6772L88.3506 546.562L91.0386 542.292H92.3569L89.0464 547.397L92.6133 553ZM104.174 547.631C104.174 548.457 104.069 549.208 103.859 549.887C103.649 550.561 103.336 551.142 102.921 551.63C102.511 552.114 102.001 552.487 101.391 552.751C100.78 553.015 100.072 553.146 99.2666 553.146C98.4365 553.146 97.7114 553.015 97.0913 552.751C96.4761 552.487 95.9634 552.111 95.5532 551.623C95.1479 551.135 94.8428 550.551 94.6377 549.873C94.4375 549.194 94.3374 548.442 94.3374 547.617C94.3374 546.523 94.5181 545.563 94.8794 544.738C95.2407 543.913 95.7876 543.271 96.52 542.812C97.2573 542.353 98.1802 542.124 99.2886 542.124C100.348 542.124 101.239 542.351 101.962 542.805C102.689 543.259 103.239 543.898 103.61 544.724C103.986 545.544 104.174 546.513 104.174 547.631ZM95.6484 547.631C95.6484 548.54 95.7778 549.326 96.0366 549.99C96.2954 550.654 96.6909 551.167 97.2231 551.528C97.7603 551.889 98.4414 552.07 99.2666 552.07C100.097 552.07 100.775 551.889 101.303 551.528C101.835 551.167 102.228 550.654 102.482 549.99C102.736 549.326 102.863 548.54 102.863 547.631C102.863 546.25 102.572 545.17 101.991 544.394C101.415 543.613 100.514 543.222 99.2886 543.222C98.4585 543.222 97.7749 543.4 97.2378 543.757C96.7007 544.113 96.3003 544.621 96.0366 545.28C95.7778 545.935 95.6484 546.718 95.6484 547.631ZM114.775 553H113.537V548.562C112.966 548.767 112.424 548.933 111.911 549.06C111.398 549.187 110.83 549.25 110.205 549.25C109.194 549.25 108.417 549.018 107.875 548.554C107.338 548.085 107.07 547.414 107.07 546.54V542.292H108.315V546.364C108.315 546.955 108.471 547.402 108.784 547.705C109.101 548.002 109.616 548.151 110.329 548.151C110.93 548.151 111.467 548.098 111.94 547.99C112.419 547.878 112.951 547.719 113.537 547.514V542.292H114.775V553ZM124.424 553H118.462V542.292H124.424V543.391H119.707V546.855H124.153V547.939H119.707V551.901H124.424V553ZM140.079 553H127.547V542.292H128.792V551.887H133.179V542.292H134.424V551.887H138.819V542.292H140.079V553ZM143.78 553V542.292H145.025V546.848H147.062C148.028 546.848 148.802 546.979 149.383 547.243C149.969 547.502 150.392 547.861 150.65 548.32C150.914 548.774 151.046 549.292 151.046 549.873C151.046 550.83 150.731 551.591 150.101 552.158C149.471 552.719 148.514 553 147.23 553H143.78ZM145.025 551.931H147.098C147.987 551.931 148.653 551.762 149.098 551.425C149.542 551.083 149.764 550.566 149.764 549.873C149.764 549.389 149.654 549.006 149.435 548.723C149.215 548.439 148.893 548.237 148.468 548.115C148.048 547.993 147.528 547.932 146.908 547.932H145.025V551.931ZM161.481 542.292C162.863 542.292 163.872 542.563 164.506 543.105C165.146 543.642 165.466 544.414 165.466 545.419C165.466 545.874 165.39 546.306 165.239 546.716C165.092 547.121 164.853 547.48 164.521 547.792C164.189 548.1 163.752 548.344 163.21 548.525C162.673 548.701 162.014 548.789 161.232 548.789H159.929V553H158.684V542.292H161.481ZM161.364 543.354H159.929V547.719H161.093C161.777 547.719 162.346 547.646 162.8 547.5C163.259 547.353 163.603 547.116 163.833 546.789C164.062 546.457 164.177 546.018 164.177 545.471C164.177 544.758 163.95 544.228 163.496 543.881C163.042 543.53 162.331 543.354 161.364 543.354ZM175.173 553L173.855 549.602H169.563L168.252 553H166.992L171.182 542.248H172.302L176.462 553H175.173ZM173.481 548.496L172.229 545.119C172.2 545.031 172.151 544.887 172.083 544.687C172.019 544.487 171.953 544.279 171.885 544.064C171.816 543.85 171.76 543.676 171.716 543.544C171.667 543.745 171.614 543.945 171.555 544.145C171.501 544.34 171.448 544.523 171.394 544.694C171.34 544.86 171.294 545.002 171.255 545.119L169.98 548.496H173.481ZM184.947 544.804C184.947 545.532 184.722 546.108 184.273 546.533C183.824 546.953 183.223 547.226 182.471 547.353V547.404C183.35 547.531 184.019 547.814 184.478 548.254C184.937 548.693 185.167 549.27 185.167 549.982C185.167 550.612 185.008 551.167 184.69 551.645C184.378 552.119 183.907 552.487 183.277 552.751C182.647 553.015 181.863 553.146 180.926 553.146C180.345 553.146 179.791 553.1 179.263 553.007C178.736 552.919 178.252 552.771 177.813 552.561V551.411C178.116 551.557 178.443 551.684 178.794 551.792C179.146 551.899 179.502 551.982 179.864 552.041C180.23 552.094 180.579 552.121 180.911 552.121C181.878 552.121 182.61 551.936 183.108 551.564C183.611 551.188 183.863 550.661 183.863 549.982C183.863 549.284 183.572 548.776 182.991 548.459C182.415 548.137 181.604 547.976 180.56 547.976H179.021V546.928H180.508C181.211 546.928 181.795 546.848 182.259 546.687C182.723 546.521 183.069 546.289 183.299 545.991C183.533 545.688 183.65 545.332 183.65 544.921C183.65 544.36 183.445 543.928 183.035 543.625C182.63 543.322 182.1 543.171 181.446 543.171C180.767 543.171 180.206 543.259 179.761 543.435C179.317 543.605 178.885 543.828 178.465 544.101L177.864 543.251C178.147 543.046 178.47 542.861 178.831 542.695C179.192 542.524 179.593 542.39 180.032 542.292C180.472 542.189 180.945 542.138 181.453 542.138C182.21 542.138 182.847 542.253 183.365 542.482C183.882 542.707 184.275 543.02 184.544 543.42C184.812 543.82 184.947 544.282 184.947 544.804ZM188.194 542.292H191.227C192.564 542.292 193.57 542.492 194.244 542.893C194.918 543.293 195.255 543.974 195.255 544.936C195.255 545.351 195.174 545.725 195.013 546.057C194.857 546.384 194.627 546.655 194.325 546.87C194.022 547.084 193.648 547.233 193.204 547.316V547.39C193.673 547.463 194.088 547.597 194.449 547.792C194.811 547.988 195.094 548.261 195.299 548.613C195.504 548.964 195.606 549.411 195.606 549.953C195.606 550.612 195.453 551.169 195.145 551.623C194.842 552.077 194.413 552.421 193.856 552.656C193.299 552.885 192.64 553 191.878 553H188.194V542.292ZM189.439 546.884H191.49C192.423 546.884 193.067 546.73 193.424 546.423C193.785 546.115 193.966 545.666 193.966 545.075C193.966 544.465 193.751 544.025 193.321 543.757C192.896 543.488 192.218 543.354 191.285 543.354H189.439V546.884ZM189.439 547.932V551.938H191.666C192.618 551.938 193.292 551.752 193.688 551.381C194.083 551.005 194.281 550.5 194.281 549.865C194.281 549.46 194.19 549.113 194.01 548.825C193.834 548.537 193.546 548.317 193.146 548.166C192.75 548.01 192.22 547.932 191.556 547.932H189.439ZM198.656 542.292H199.821V548.481C199.821 548.715 199.818 548.972 199.813 549.25C199.809 549.523 199.801 549.792 199.792 550.056C199.782 550.319 199.77 550.559 199.755 550.773C199.745 550.988 199.735 551.154 199.726 551.271H199.784L205.746 542.292H207.116V553H205.951V546.884C205.951 546.625 205.956 546.352 205.966 546.064C205.976 545.771 205.985 545.488 205.995 545.214C206.01 544.941 206.024 544.697 206.039 544.482C206.054 544.262 206.063 544.094 206.068 543.977H206.002L200.033 553H198.656V542.292ZM210.788 542.292H213.82C215.158 542.292 216.164 542.492 216.838 542.893C217.512 543.293 217.849 543.974 217.849 544.936C217.849 545.351 217.768 545.725 217.607 546.057C217.451 546.384 217.221 546.655 216.918 546.87C216.616 547.084 216.242 547.233 215.798 547.316V547.39C216.267 547.463 216.682 547.597 217.043 547.792C217.404 547.988 217.688 548.261 217.893 548.613C218.098 548.964 218.2 549.411 218.2 549.953C218.2 550.612 218.046 551.169 217.739 551.623C217.436 552.077 217.006 552.421 216.45 552.656C215.893 552.885 215.234 553 214.472 553H210.788V542.292ZM212.033 546.884H214.084C215.017 546.884 215.661 546.73 216.018 546.423C216.379 546.115 216.56 545.666 216.56 545.075C216.56 544.465 216.345 544.025 215.915 543.757C215.49 543.488 214.812 543.354 213.879 543.354H212.033V546.884ZM212.033 547.932V551.938H214.26C215.212 551.938 215.886 551.752 216.281 551.381C216.677 551.005 216.875 550.5 216.875 549.865C216.875 549.46 216.784 549.113 216.604 548.825C216.428 548.537 216.14 548.317 215.739 548.166C215.344 548.01 214.814 547.932 214.15 547.932H212.033ZM227.952 553L226.633 549.602H222.341L221.03 553H219.771L223.96 542.248H225.081L229.241 553H227.952ZM226.26 548.496L225.007 545.119C224.978 545.031 224.929 544.887 224.861 544.687C224.797 544.487 224.731 544.279 224.663 544.064C224.595 543.85 224.539 543.676 224.495 543.544C224.446 543.745 224.392 543.945 224.333 544.145C224.28 544.34 224.226 544.523 224.172 544.694C224.119 544.86 224.072 545.002 224.033 545.119L222.759 548.496H226.26ZM234.766 553H233.514V543.391H230.145V542.292H238.121V543.391H234.766V553ZM240.489 553V542.292H241.734V546.848H243.771C244.737 546.848 245.511 546.979 246.092 547.243C246.678 547.502 247.101 547.861 247.359 548.32C247.623 548.774 247.755 549.292 247.755 549.873C247.755 550.83 247.44 551.591 246.81 552.158C246.18 552.719 245.223 553 243.939 553H240.489ZM241.734 551.931H243.807C244.696 551.931 245.362 551.762 245.807 551.425C246.251 551.083 246.473 550.566 246.473 549.873C246.473 549.389 246.363 549.006 246.144 548.723C245.924 548.439 245.602 548.237 245.177 548.115C244.757 547.993 244.237 547.932 243.617 547.932H241.734V551.931ZM259.97 543.237C259.379 543.237 258.847 543.339 258.374 543.544C257.905 543.745 257.504 544.038 257.172 544.423C256.845 544.804 256.594 545.266 256.418 545.808C256.242 546.35 256.154 546.96 256.154 547.639C256.154 548.537 256.293 549.318 256.572 549.982C256.855 550.642 257.275 551.152 257.832 551.513C258.393 551.875 259.094 552.055 259.934 552.055C260.412 552.055 260.861 552.016 261.281 551.938C261.706 551.855 262.119 551.752 262.519 551.63V552.714C262.128 552.861 261.718 552.968 261.289 553.037C260.859 553.11 260.349 553.146 259.758 553.146C258.669 553.146 257.758 552.922 257.026 552.473C256.298 552.019 255.751 551.379 255.385 550.554C255.024 549.729 254.843 548.754 254.843 547.631C254.843 546.821 254.956 546.081 255.18 545.412C255.41 544.738 255.742 544.157 256.176 543.669C256.616 543.181 257.153 542.805 257.788 542.541C258.427 542.272 259.16 542.138 259.985 542.138C260.527 542.138 261.049 542.192 261.552 542.299C262.055 542.407 262.509 542.561 262.915 542.761L262.417 543.815C262.075 543.659 261.699 543.525 261.289 543.413C260.883 543.295 260.444 543.237 259.97 543.237ZM265.591 542.292H268.623C269.961 542.292 270.967 542.492 271.641 542.893C272.314 543.293 272.651 543.974 272.651 544.936C272.651 545.351 272.571 545.725 272.41 546.057C272.253 546.384 272.024 546.655 271.721 546.87C271.418 547.084 271.045 547.233 270.601 547.316V547.39C271.069 547.463 271.484 547.597 271.846 547.792C272.207 547.988 272.49 548.261 272.695 548.613C272.9 548.964 273.003 549.411 273.003 549.953C273.003 550.612 272.849 551.169 272.542 551.623C272.239 552.077 271.809 552.421 271.252 552.656C270.696 552.885 270.037 553 269.275 553H265.591V542.292ZM266.836 546.884H268.887C269.819 546.884 270.464 546.73 270.82 546.423C271.182 546.115 271.362 545.666 271.362 545.075C271.362 544.465 271.147 544.025 270.718 543.757C270.293 543.488 269.614 543.354 268.682 543.354H266.836V546.884ZM266.836 547.932V551.938H269.062C270.015 551.938 270.688 551.752 271.084 551.381C271.479 551.005 271.677 550.5 271.677 549.865C271.677 549.46 271.587 549.113 271.406 548.825C271.23 548.537 270.942 548.317 270.542 548.166C270.146 548.01 269.617 547.932 268.953 547.932H266.836ZM285.325 547.631C285.325 548.457 285.22 549.208 285.01 549.887C284.8 550.561 284.488 551.142 284.073 551.63C283.663 552.114 283.152 552.487 282.542 552.751C281.932 553.015 281.224 553.146 280.418 553.146C279.588 553.146 278.863 553.015 278.243 552.751C277.627 552.487 277.115 552.111 276.705 551.623C276.299 551.135 275.994 550.551 275.789 549.873C275.589 549.194 275.489 548.442 275.489 547.617C275.489 546.523 275.669 545.563 276.031 544.738C276.392 543.913 276.939 543.271 277.671 542.812C278.409 542.353 279.332 542.124 280.44 542.124C281.5 542.124 282.391 542.351 283.113 542.805C283.841 543.259 284.39 543.898 284.761 544.724C285.137 545.544 285.325 546.513 285.325 547.631ZM276.8 547.631C276.8 548.54 276.929 549.326 277.188 549.99C277.447 550.654 277.842 551.167 278.375 551.528C278.912 551.889 279.593 552.07 280.418 552.07C281.248 552.07 281.927 551.889 282.454 551.528C282.986 551.167 283.379 550.654 283.633 549.99C283.887 549.326 284.014 548.54 284.014 547.631C284.014 546.25 283.724 545.17 283.143 544.394C282.566 543.613 281.666 543.222 280.44 543.222C279.61 543.222 278.926 543.4 278.389 543.757C277.852 544.113 277.452 544.621 277.188 545.28C276.929 545.935 276.8 546.718 276.8 547.631ZM288.478 542.292H289.642V548.481C289.642 548.715 289.64 548.972 289.635 549.25C289.63 549.523 289.623 549.792 289.613 550.056C289.603 550.319 289.591 550.559 289.576 550.773C289.566 550.988 289.557 551.154 289.547 551.271H289.605L295.567 542.292H296.937V553H295.772V546.884C295.772 546.625 295.777 546.352 295.787 546.064C295.797 545.771 295.807 545.488 295.816 545.214C295.831 544.941 295.846 544.697 295.86 544.482C295.875 544.262 295.885 544.094 295.89 543.977H295.824L289.854 553H288.478V542.292ZM311.503 544.804C311.503 545.532 311.279 546.108 310.83 546.533C310.38 546.953 309.78 547.226 309.028 547.353V547.404C309.907 547.531 310.576 547.814 311.035 548.254C311.494 548.693 311.723 549.27 311.723 549.982C311.723 550.612 311.564 551.167 311.247 551.645C310.935 552.119 310.463 552.487 309.833 552.751C309.204 553.015 308.42 553.146 307.482 553.146C306.901 553.146 306.347 553.1 305.82 553.007C305.292 552.919 304.809 552.771 304.37 552.561V551.411C304.672 551.557 305 551.684 305.351 551.792C305.703 551.899 306.059 551.982 306.42 552.041C306.787 552.094 307.136 552.121 307.468 552.121C308.435 552.121 309.167 551.936 309.665 551.564C310.168 551.188 310.419 550.661 310.419 549.982C310.419 549.284 310.129 548.776 309.548 548.459C308.972 548.137 308.161 547.976 307.116 547.976H305.578V546.928H307.065C307.768 546.928 308.352 546.848 308.815 546.687C309.279 546.521 309.626 546.289 309.855 545.991C310.09 545.688 310.207 545.332 310.207 544.921C310.207 544.36 310.002 543.928 309.592 543.625C309.187 543.322 308.657 543.171 308.002 543.171C307.324 543.171 306.762 543.259 306.318 543.435C305.874 543.605 305.441 543.828 305.021 544.101L304.421 543.251C304.704 543.046 305.026 542.861 305.388 542.695C305.749 542.524 306.149 542.39 306.589 542.292C307.028 542.189 307.502 542.138 308.01 542.138C308.767 542.138 309.404 542.253 309.921 542.482C310.439 542.707 310.832 543.02 311.101 543.42C311.369 543.82 311.503 544.282 311.503 544.804ZM322.866 553H321.621V547.954H315.996V553H314.751V542.292H315.996V546.855H321.621V542.292H322.866V553ZM333.277 553L331.958 549.602H327.667L326.355 553H325.096L329.285 542.248H330.406L334.566 553H333.277ZM331.585 548.496L330.333 545.119C330.303 545.031 330.254 544.887 330.186 544.687C330.123 544.487 330.057 544.279 329.988 544.064C329.92 543.85 329.864 543.676 329.82 543.544C329.771 543.745 329.717 543.945 329.659 544.145C329.605 544.34 329.551 544.523 329.498 544.694C329.444 544.86 329.397 545.002 329.358 545.119L328.084 548.496H331.585ZM344.918 553H343.673V547.954H338.048V553H336.803V542.292H338.048V546.855H343.673V542.292H344.918V553ZM348.627 542.292H349.792V548.481C349.792 548.715 349.789 548.972 349.784 549.25C349.779 549.523 349.772 549.792 349.762 550.056C349.752 550.319 349.74 550.559 349.726 550.773C349.716 550.988 349.706 551.154 349.696 551.271H349.755L355.717 542.292H357.086V553H355.922V546.884C355.922 546.625 355.927 546.352 355.937 546.064C355.946 545.771 355.956 545.488 355.966 545.214C355.98 544.941 355.995 544.697 356.01 544.482C356.024 544.262 356.034 544.094 356.039 543.977H355.973L350.004 553H348.627V542.292ZM363.872 548.525L361.088 553H359.631L362.626 548.298C362.236 548.176 361.87 548.002 361.528 547.778C361.191 547.548 360.917 547.233 360.708 546.833C360.502 546.433 360.4 545.92 360.4 545.295C360.4 544.318 360.732 543.574 361.396 543.061C362.065 542.548 363.059 542.292 364.377 542.292H367.314V553H366.069V548.525H363.872ZM366.069 543.354H364.421C363.83 543.354 363.33 543.422 362.919 543.559C362.514 543.696 362.207 543.911 361.997 544.204C361.787 544.497 361.682 544.88 361.682 545.354C361.682 546.032 361.906 546.555 362.355 546.921C362.805 547.282 363.491 547.463 364.414 547.463H366.069V543.354ZM375.662 542.292H376.827V548.481C376.827 548.715 376.824 548.972 376.819 549.25C376.814 549.523 376.807 549.792 376.797 550.056C376.788 550.319 376.775 550.559 376.761 550.773C376.751 550.988 376.741 551.154 376.731 551.271H376.79L382.752 542.292H384.122V553H382.957V546.884C382.957 546.625 382.962 546.352 382.972 546.064C382.981 545.771 382.991 545.488 383.001 545.214C383.016 544.941 383.03 544.697 383.045 544.482C383.06 544.262 383.069 544.094 383.074 543.977H383.008L377.039 553H375.662V542.292ZM93.5801 573H92.335V567.954H86.71V573H85.4648V562.292H86.71V566.855H92.335V562.292H93.5801V573ZM103.991 573L102.672 569.602H98.3804L97.0693 573H95.8096L99.999 562.248H101.12L105.28 573H103.991ZM102.299 568.496L101.046 565.119C101.017 565.031 100.968 564.887 100.9 564.687C100.836 564.487 100.771 564.279 100.702 564.064C100.634 563.85 100.578 563.676 100.534 563.544C100.485 563.745 100.431 563.945 100.373 564.145C100.319 564.34 100.265 564.523 100.211 564.694C100.158 564.86 100.111 565.002 100.072 565.119L98.7979 568.496H102.299ZM107.517 562.292H110.549C111.887 562.292 112.893 562.492 113.566 562.893C114.24 563.293 114.577 563.974 114.577 564.936C114.577 565.351 114.497 565.725 114.335 566.057C114.179 566.384 113.95 566.655 113.647 566.87C113.344 567.084 112.971 567.233 112.526 567.316V567.39C112.995 567.463 113.41 567.597 113.771 567.792C114.133 567.988 114.416 568.261 114.621 568.613C114.826 568.964 114.929 569.411 114.929 569.953C114.929 570.612 114.775 571.169 114.467 571.623C114.165 572.077 113.735 572.421 113.178 572.656C112.622 572.885 111.962 573 111.201 573H107.517V562.292ZM108.762 566.884H110.812C111.745 566.884 112.39 566.73 112.746 566.423C113.107 566.115 113.288 565.666 113.288 565.075C113.288 564.465 113.073 564.025 112.644 563.757C112.219 563.488 111.54 563.354 110.607 563.354H108.762V566.884ZM108.762 567.932V571.938H110.988C111.94 571.938 112.614 571.752 113.01 571.381C113.405 571.005 113.603 570.5 113.603 569.865C113.603 569.46 113.513 569.113 113.332 568.825C113.156 568.537 112.868 568.317 112.468 568.166C112.072 568.01 111.542 567.932 110.878 567.932H108.762ZM117.964 573V562.292H119.209V566.848H120.923C121.89 566.848 122.659 566.979 123.23 567.243C123.801 567.502 124.211 567.861 124.46 568.32C124.709 568.774 124.834 569.292 124.834 569.873C124.834 570.83 124.531 571.591 123.926 572.158C123.325 572.719 122.38 573 121.091 573H117.964ZM119.209 571.938H120.967C121.851 571.938 122.5 571.767 122.915 571.425C123.335 571.083 123.545 570.566 123.545 569.873C123.545 569.389 123.442 569.008 123.237 568.73C123.037 568.447 122.732 568.247 122.322 568.129C121.917 568.007 121.404 567.946 120.784 567.946H119.209V571.938ZM126.46 573V562.292H127.705V573H126.46ZM139.119 573H137.61L132.688 567.565V573H131.443V562.292H132.688V567.478L137.486 562.292H138.914L134.175 567.492L139.119 573ZM141.363 562.292H142.528V568.481C142.528 568.715 142.525 568.972 142.521 569.25C142.516 569.523 142.508 569.792 142.499 570.056C142.489 570.319 142.477 570.559 142.462 570.773C142.452 570.988 142.442 571.154 142.433 571.271H142.491L148.453 562.292H149.823V573H148.658V566.884C148.658 566.625 148.663 566.352 148.673 566.064C148.683 565.771 148.692 565.488 148.702 565.214C148.717 564.941 148.731 564.697 148.746 564.482C148.761 564.262 148.771 564.094 148.775 563.977H148.709L142.74 573H141.363V562.292ZM158.142 562.292H161.174C162.512 562.292 163.518 562.492 164.191 562.893C164.865 563.293 165.202 563.974 165.202 564.936C165.202 565.351 165.122 565.725 164.96 566.057C164.804 566.384 164.575 566.655 164.272 566.87C163.969 567.084 163.596 567.233 163.151 567.316V567.39C163.62 567.463 164.035 567.597 164.396 567.792C164.758 567.988 165.041 568.261 165.246 568.613C165.451 568.964 165.554 569.411 165.554 569.953C165.554 570.612 165.4 571.169 165.092 571.623C164.79 572.077 164.36 572.421 163.803 572.656C163.247 572.885 162.587 573 161.826 573H158.142V562.292ZM159.387 566.884H161.438C162.37 566.884 163.015 566.73 163.371 566.423C163.732 566.115 163.913 565.666 163.913 565.075C163.913 564.465 163.698 564.025 163.269 563.757C162.844 563.488 162.165 563.354 161.232 563.354H159.387V566.884ZM159.387 567.932V571.938H161.613C162.565 571.938 163.239 571.752 163.635 571.381C164.03 571.005 164.228 570.5 164.228 569.865C164.228 569.46 164.138 569.113 163.957 568.825C163.781 568.537 163.493 568.317 163.093 568.166C162.697 568.01 162.167 567.932 161.503 567.932H159.387ZM180.853 573H179.607V563.391H176.136C176.067 563.938 175.994 564.509 175.916 565.104C175.838 565.7 175.757 566.293 175.674 566.884C175.591 567.475 175.508 568.034 175.425 568.562C175.342 569.089 175.259 569.558 175.176 569.968C175.049 570.646 174.891 571.225 174.7 571.704C174.515 572.177 174.266 572.541 173.953 572.795C173.646 573.044 173.238 573.168 172.73 573.168C172.559 573.168 172.388 573.151 172.217 573.117C172.051 573.083 171.905 573.042 171.778 572.993V571.945C171.89 571.994 172.015 572.036 172.151 572.07C172.293 572.104 172.442 572.121 172.598 572.121C172.906 572.121 173.147 571.999 173.323 571.755C173.504 571.506 173.646 571.191 173.748 570.81C173.855 570.429 173.948 570.039 174.026 569.638C174.09 569.306 174.163 568.886 174.246 568.378C174.329 567.871 174.417 567.294 174.51 566.65C174.603 566 174.698 565.307 174.795 564.57C174.898 563.833 174.998 563.073 175.096 562.292H180.853V573ZM197.855 567.631C197.855 568.457 197.755 569.208 197.555 569.887C197.359 570.561 197.064 571.142 196.668 571.63C196.273 572.119 195.78 572.495 195.189 572.758C194.603 573.017 193.922 573.146 193.146 573.146C192.13 573.146 191.275 572.934 190.582 572.509C189.894 572.08 189.366 571.477 189 570.7C188.639 569.919 188.438 569.006 188.399 567.961H185.777V573H184.532V562.292H185.777V566.862H188.421C188.49 565.905 188.707 565.073 189.073 564.365C189.444 563.652 189.967 563.1 190.641 562.709C191.314 562.319 192.142 562.124 193.124 562.124C194.154 562.124 195.018 562.353 195.716 562.812C196.419 563.266 196.952 563.906 197.313 564.731C197.674 565.556 197.855 566.523 197.855 567.631ZM189.703 567.609C189.703 568.522 189.823 569.313 190.062 569.982C190.306 570.646 190.68 571.162 191.183 571.528C191.686 571.889 192.328 572.07 193.109 572.07C193.91 572.07 194.564 571.889 195.072 571.528C195.58 571.167 195.953 570.654 196.192 569.99C196.432 569.326 196.551 568.54 196.551 567.631C196.551 566.723 196.432 565.939 196.192 565.28C195.958 564.621 195.589 564.113 195.086 563.757C194.583 563.4 193.934 563.222 193.138 563.222C192.347 563.222 191.698 563.4 191.19 563.757C190.687 564.108 190.313 564.614 190.069 565.273C189.825 565.927 189.703 566.706 189.703 567.609ZM201 573V562.292H207.292V563.391H202.245V566.848H203.908C204.938 566.848 205.744 566.975 206.325 567.229C206.906 567.482 207.313 567.836 207.548 568.291C207.787 568.745 207.907 569.272 207.907 569.873C207.907 570.859 207.611 571.628 207.021 572.18C206.435 572.727 205.46 573 204.098 573H201ZM202.245 571.931H203.966C204.933 571.931 205.617 571.762 206.017 571.425C206.422 571.083 206.625 570.566 206.625 569.873C206.625 569.389 206.527 569.006 206.332 568.723C206.137 568.439 205.829 568.237 205.409 568.115C204.989 567.993 204.438 567.932 203.754 567.932H202.245V571.931ZM210.949 562.292H212.114V568.481C212.114 568.715 212.111 568.972 212.106 569.25C212.102 569.523 212.094 569.792 212.084 570.056C212.075 570.319 212.062 570.559 212.048 570.773C212.038 570.988 212.028 571.154 212.019 571.271H212.077L218.039 562.292H219.409V573H218.244V566.884C218.244 566.625 218.249 566.352 218.259 566.064C218.269 565.771 218.278 565.488 218.288 565.214C218.303 564.941 218.317 564.697 218.332 564.482C218.347 564.262 218.356 564.094 218.361 563.977H218.295L212.326 573H210.949V562.292ZM227.791 573L224.194 563.522H224.136C224.155 563.723 224.172 563.967 224.187 564.255C224.202 564.543 224.214 564.858 224.224 565.2C224.233 565.537 224.238 565.881 224.238 566.232V573H223.081V562.292H224.927L228.318 571.198H228.369L231.812 562.292H233.643V573H232.412V566.145C232.412 565.827 232.417 565.51 232.427 565.192C232.437 564.87 232.449 564.567 232.463 564.284C232.478 563.996 232.493 563.747 232.507 563.537H232.449L228.809 573H227.791ZM246.609 567.631C246.609 568.457 246.504 569.208 246.294 569.887C246.084 570.561 245.772 571.142 245.357 571.63C244.947 572.114 244.437 572.487 243.826 572.751C243.216 573.015 242.508 573.146 241.702 573.146C240.872 573.146 240.147 573.015 239.527 572.751C238.912 572.487 238.399 572.111 237.989 571.623C237.583 571.135 237.278 570.551 237.073 569.873C236.873 569.194 236.773 568.442 236.773 567.617C236.773 566.523 236.954 565.563 237.315 564.738C237.676 563.913 238.223 563.271 238.956 562.812C239.693 562.353 240.616 562.124 241.724 562.124C242.784 562.124 243.675 562.351 244.397 562.805C245.125 563.259 245.674 563.898 246.045 564.724C246.421 565.544 246.609 566.513 246.609 567.631ZM238.084 567.631C238.084 568.54 238.213 569.326 238.472 569.99C238.731 570.654 239.126 571.167 239.659 571.528C240.196 571.889 240.877 572.07 241.702 572.07C242.532 572.07 243.211 571.889 243.738 571.528C244.271 571.167 244.664 570.654 244.917 569.99C245.171 569.326 245.298 568.54 245.298 567.631C245.298 566.25 245.008 565.17 244.427 564.394C243.851 563.613 242.95 563.222 241.724 563.222C240.894 563.222 240.21 563.4 239.673 563.757C239.136 564.113 238.736 564.621 238.472 565.28C238.213 565.935 238.084 566.718 238.084 567.631ZM249.762 562.292H250.926V568.481C250.926 568.715 250.924 568.972 250.919 569.25C250.914 569.523 250.907 569.792 250.897 570.056C250.887 570.319 250.875 570.559 250.86 570.773C250.851 570.988 250.841 571.154 250.831 571.271H250.89L256.852 562.292H258.221V573H257.057V566.884C257.057 566.625 257.062 566.352 257.071 566.064C257.081 565.771 257.091 565.488 257.101 565.214C257.115 564.941 257.13 564.697 257.145 564.482C257.159 564.262 257.169 564.094 257.174 563.977H257.108L251.139 573H249.762V562.292ZM256.896 558.981C256.852 559.475 256.727 559.887 256.522 560.219C256.322 560.551 256.026 560.803 255.636 560.974C255.245 561.14 254.745 561.223 254.134 561.223C253.504 561.223 252.997 561.142 252.611 560.981C252.23 560.815 251.947 560.566 251.761 560.234C251.581 559.902 251.473 559.484 251.439 558.981H252.582C252.635 559.519 252.779 559.885 253.014 560.08C253.248 560.275 253.629 560.373 254.156 560.373C254.625 560.373 254.994 560.271 255.262 560.065C255.531 559.86 255.692 559.499 255.746 558.981H256.896ZM275.827 567.631C275.827 568.457 275.722 569.208 275.512 569.887C275.302 570.561 274.99 571.142 274.575 571.63C274.165 572.114 273.654 572.487 273.044 572.751C272.434 573.015 271.726 573.146 270.92 573.146C270.09 573.146 269.365 573.015 268.745 572.751C268.129 572.487 267.617 572.111 267.207 571.623C266.801 571.135 266.496 570.551 266.291 569.873C266.091 569.194 265.991 568.442 265.991 567.617C265.991 566.523 266.171 565.563 266.533 564.738C266.894 563.913 267.441 563.271 268.173 562.812C268.911 562.353 269.833 562.124 270.942 562.124C272.001 562.124 272.893 562.351 273.615 562.805C274.343 563.259 274.892 563.898 275.263 564.724C275.639 565.544 275.827 566.513 275.827 567.631ZM267.302 567.631C267.302 568.54 267.431 569.326 267.69 569.99C267.949 570.654 268.344 571.167 268.876 571.528C269.414 571.889 270.095 572.07 270.92 572.07C271.75 572.07 272.429 571.889 272.956 571.528C273.488 571.167 273.881 570.654 274.135 569.99C274.389 569.326 274.516 568.54 274.516 567.631C274.516 566.25 274.226 565.17 273.645 564.394C273.068 563.613 272.167 563.222 270.942 563.222C270.112 563.222 269.428 563.4 268.891 563.757C268.354 564.113 267.954 564.621 267.69 565.28C267.431 565.935 267.302 566.718 267.302 567.631ZM278.965 573V562.292H285.256V563.391H280.21V566.848H281.873C282.903 566.848 283.708 566.975 284.29 567.229C284.871 567.482 285.278 567.836 285.513 568.291C285.752 568.745 285.872 569.272 285.872 569.873C285.872 570.859 285.576 571.628 284.985 572.18C284.399 572.727 283.425 573 282.063 573H278.965ZM280.21 571.931H281.931C282.898 571.931 283.582 571.762 283.982 571.425C284.387 571.083 284.59 570.566 284.59 569.873C284.59 569.389 284.492 569.006 284.297 568.723C284.102 568.439 283.794 568.237 283.374 568.115C282.954 567.993 282.402 567.932 281.719 567.932H280.21V571.931ZM296.517 573H295.271V563.391H291.8C291.731 563.938 291.658 564.509 291.58 565.104C291.502 565.7 291.421 566.293 291.338 566.884C291.255 567.475 291.172 568.034 291.089 568.562C291.006 569.089 290.923 569.558 290.84 569.968C290.713 570.646 290.555 571.225 290.364 571.704C290.179 572.177 289.93 572.541 289.617 572.795C289.31 573.044 288.902 573.168 288.394 573.168C288.223 573.168 288.052 573.151 287.881 573.117C287.715 573.083 287.569 573.042 287.442 572.993V571.945C287.554 571.994 287.679 572.036 287.815 572.07C287.957 572.104 288.106 572.121 288.262 572.121C288.57 572.121 288.812 571.999 288.987 571.755C289.168 571.506 289.31 571.191 289.412 570.81C289.52 570.429 289.612 570.039 289.69 569.638C289.754 569.306 289.827 568.886 289.91 568.378C289.993 567.871 290.081 567.294 290.174 566.65C290.267 566 290.362 565.307 290.459 564.57C290.562 563.833 290.662 563.073 290.76 562.292H296.517V573ZM306.913 573L305.594 569.602H301.302L299.991 573H298.731L302.921 562.248H304.042L308.202 573H306.913ZM305.221 568.496L303.968 565.119C303.939 565.031 303.89 564.887 303.822 564.687C303.758 564.487 303.692 564.279 303.624 564.064C303.556 563.85 303.5 563.676 303.456 563.544C303.407 563.745 303.353 563.945 303.294 564.145C303.241 564.34 303.187 564.523 303.133 564.694C303.08 564.86 303.033 565.002 302.994 565.119L301.72 568.496H305.221ZM315.016 563.237C314.425 563.237 313.893 563.339 313.419 563.544C312.951 563.745 312.55 564.038 312.218 564.423C311.891 564.804 311.64 565.266 311.464 565.808C311.288 566.35 311.2 566.96 311.2 567.639C311.2 568.537 311.339 569.318 311.618 569.982C311.901 570.642 312.321 571.152 312.877 571.513C313.439 571.875 314.14 572.055 314.979 572.055C315.458 572.055 315.907 572.016 316.327 571.938C316.752 571.855 317.165 571.752 317.565 571.63V572.714C317.174 572.861 316.764 572.968 316.334 573.037C315.905 573.11 315.395 573.146 314.804 573.146C313.715 573.146 312.804 572.922 312.072 572.473C311.344 572.019 310.797 571.379 310.431 570.554C310.07 569.729 309.889 568.754 309.889 567.631C309.889 566.821 310.001 566.081 310.226 565.412C310.456 564.738 310.788 564.157 311.222 563.669C311.662 563.181 312.199 562.805 312.833 562.541C313.473 562.272 314.206 562.138 315.031 562.138C315.573 562.138 316.095 562.192 316.598 562.299C317.101 562.407 317.555 562.561 317.96 562.761L317.462 563.815C317.121 563.659 316.745 563.525 316.334 563.413C315.929 563.295 315.49 563.237 315.016 563.237ZM323.925 573H322.673V563.391H319.304V562.292H327.28V563.391H323.925V573ZM329.663 562.292H330.828V568.481C330.828 568.715 330.825 568.972 330.82 569.25C330.815 569.523 330.808 569.792 330.798 570.056C330.789 570.319 330.776 570.559 330.762 570.773C330.752 570.988 330.742 571.154 330.732 571.271H330.791L336.753 562.292H338.123V573H336.958V566.884C336.958 566.625 336.963 566.352 336.973 566.064C336.982 565.771 336.992 565.488 337.002 565.214C337.017 564.941 337.031 564.697 337.046 564.482C337.061 564.262 337.07 564.094 337.075 563.977H337.009L331.04 573H329.663V562.292ZM342.439 570.026V569.646C342.439 569.255 342.476 568.92 342.549 568.642C342.623 568.359 342.75 568.095 342.93 567.851C343.116 567.607 343.372 567.348 343.699 567.075C344.08 566.757 344.38 566.489 344.6 566.269C344.825 566.044 344.986 565.82 345.083 565.595C345.181 565.371 345.23 565.1 345.23 564.782C345.23 564.274 345.066 563.886 344.739 563.618C344.412 563.344 343.951 563.208 343.355 563.208C342.872 563.208 342.442 563.269 342.066 563.391C341.69 563.513 341.329 563.659 340.982 563.83L340.557 562.849C340.958 562.639 341.392 562.468 341.861 562.336C342.33 562.204 342.852 562.138 343.428 562.138C344.371 562.138 345.101 562.373 345.618 562.841C346.136 563.305 346.395 563.945 346.395 564.76C346.395 565.214 346.321 565.603 346.175 565.925C346.028 566.242 345.821 566.535 345.552 566.804C345.284 567.067 344.966 567.348 344.6 567.646C344.278 567.919 344.031 568.161 343.86 568.371C343.689 568.576 343.572 568.789 343.509 569.008C343.445 569.223 343.414 569.482 343.414 569.785V570.026H342.439ZM342.117 572.238C342.117 571.896 342.198 571.655 342.359 571.513C342.52 571.367 342.728 571.293 342.981 571.293C343.221 571.293 343.423 571.367 343.589 571.513C343.76 571.655 343.846 571.896 343.846 572.238C343.846 572.575 343.76 572.822 343.589 572.978C343.423 573.129 343.221 573.205 342.981 573.205C342.728 573.205 342.52 573.129 342.359 572.978C342.198 572.822 342.117 572.575 342.117 572.238ZM85.4795 582.292H86.644V588.481C86.644 588.715 86.6416 588.972 86.6367 589.25C86.6318 589.523 86.6245 589.792 86.6147 590.056C86.605 590.319 86.5928 590.559 86.5781 590.773C86.5684 590.988 86.5586 591.154 86.5488 591.271H86.6074L92.5693 582.292H93.939V593H92.7744V586.884C92.7744 586.625 92.7793 586.352 92.7891 586.064C92.7988 585.771 92.8086 585.488 92.8184 585.214C92.833 584.941 92.8477 584.697 92.8623 584.482C92.877 584.262 92.8867 584.094 92.8916 583.977H92.8257L86.8564 593H85.4795V582.292ZM105.727 593H104.481V587.954H98.8564V593H97.6113V582.292H98.8564V586.855H104.481V582.292H105.727V593ZM112.709 593H111.457V583.391H108.088V582.292H116.064V583.391H112.709V593ZM124.395 593H118.433V582.292H124.395V583.391H119.678V586.855H124.124V587.939H119.678V591.901H124.395V593ZM130.315 582.292C131.697 582.292 132.706 582.563 133.34 583.105C133.98 583.642 134.3 584.414 134.3 585.419C134.3 585.874 134.224 586.306 134.073 586.716C133.926 587.121 133.687 587.48 133.355 587.792C133.023 588.1 132.586 588.344 132.044 588.525C131.507 588.701 130.848 588.789 130.066 588.789H128.763V593H127.518V582.292H130.315ZM130.198 583.354H128.763V587.719H129.927C130.611 587.719 131.18 587.646 131.634 587.5C132.093 587.353 132.437 587.116 132.667 586.789C132.896 586.457 133.011 586.018 133.011 585.471C133.011 584.758 132.784 584.228 132.33 583.881C131.875 583.53 131.165 583.354 130.198 583.354ZM143.253 593H137.291V582.292H143.253V583.391H138.536V586.855H142.982V587.939H138.536V591.901H143.253V593ZM150.954 583.237C150.363 583.237 149.831 583.339 149.357 583.544C148.888 583.745 148.488 584.038 148.156 584.423C147.829 584.804 147.577 585.266 147.401 585.808C147.226 586.35 147.138 586.96 147.138 587.639C147.138 588.537 147.277 589.318 147.555 589.982C147.838 590.642 148.258 591.152 148.815 591.513C149.376 591.875 150.077 592.055 150.917 592.055C151.396 592.055 151.845 592.016 152.265 591.938C152.689 591.855 153.102 591.752 153.502 591.63V592.714C153.112 592.861 152.702 592.968 152.272 593.037C151.842 593.11 151.332 593.146 150.741 593.146C149.652 593.146 148.742 592.922 148.009 592.473C147.282 592.019 146.735 591.379 146.369 590.554C146.007 589.729 145.827 588.754 145.827 587.631C145.827 586.821 145.939 586.081 146.164 585.412C146.393 584.738 146.725 584.157 147.16 583.669C147.599 583.181 148.136 582.805 148.771 582.541C149.411 582.272 150.143 582.138 150.968 582.138C151.51 582.138 152.033 582.192 152.536 582.299C153.039 582.407 153.493 582.561 153.898 582.761L153.4 583.815C153.058 583.659 152.682 583.525 152.272 583.413C151.867 583.295 151.427 583.237 150.954 583.237ZM164.375 582.292L160.888 590.056C160.585 590.739 160.278 591.311 159.965 591.77C159.653 592.229 159.282 592.573 158.852 592.802C158.422 593.032 157.878 593.146 157.219 593.146C156.936 593.146 156.672 593.125 156.428 593.081C156.188 593.042 155.974 592.99 155.783 592.927V591.689C155.979 591.782 156.188 591.855 156.413 591.909C156.643 591.958 156.884 591.982 157.138 591.982C157.514 591.982 157.836 591.926 158.105 591.813C158.374 591.696 158.61 591.513 158.815 591.264C159.021 591.01 159.216 590.676 159.401 590.261L155.271 582.292H156.633L159.68 588.276C159.719 588.349 159.76 588.435 159.804 588.532C159.848 588.625 159.892 588.723 159.936 588.825C159.98 588.923 160.019 589.021 160.053 589.118H160.104C160.134 589.045 160.166 588.959 160.2 588.862C160.239 588.764 160.278 588.667 160.317 588.569C160.356 588.471 160.39 588.388 160.419 588.32L163.049 582.292H164.375ZM172.559 593H166.597V582.292H172.559V583.391H167.842V586.855H172.288V587.939H167.842V591.901H172.559V593ZM188.213 593H175.682V582.292H176.927V591.887H181.314V582.292H182.559V591.887H186.954V582.292H188.213V593ZM191.915 593V582.292H193.16V586.848H195.196C196.163 586.848 196.937 586.979 197.518 587.243C198.104 587.502 198.526 587.861 198.785 588.32C199.049 588.774 199.181 589.292 199.181 589.873C199.181 590.83 198.866 591.591 198.236 592.158C197.606 592.719 196.649 593 195.365 593H191.915ZM193.16 591.931H195.233C196.122 591.931 196.788 591.762 197.232 591.425C197.677 591.083 197.899 590.566 197.899 589.873C197.899 589.389 197.789 589.006 197.569 588.723C197.35 588.439 197.027 588.237 196.603 588.115C196.183 587.993 195.663 587.932 195.042 587.932H193.16V591.931ZM206.75 583.237C206.159 583.237 205.626 583.339 205.153 583.544C204.684 583.745 204.284 584.038 203.952 584.423C203.625 584.804 203.373 585.266 203.197 585.808C203.021 586.35 202.934 586.96 202.934 587.639C202.934 588.537 203.073 589.318 203.351 589.982C203.634 590.642 204.054 591.152 204.611 591.513C205.172 591.875 205.873 592.055 206.713 592.055C207.191 592.055 207.641 592.016 208.061 591.938C208.485 591.855 208.898 591.752 209.298 591.63V592.714C208.908 592.861 208.498 592.968 208.068 593.037C207.638 593.11 207.128 593.146 206.537 593.146C205.448 593.146 204.538 592.922 203.805 592.473C203.078 592.019 202.531 591.379 202.165 590.554C201.803 589.729 201.623 588.754 201.623 587.631C201.623 586.821 201.735 586.081 201.959 585.412C202.189 584.738 202.521 584.157 202.956 583.669C203.395 583.181 203.932 582.805 204.567 582.541C205.207 582.272 205.939 582.138 206.764 582.138C207.306 582.138 207.829 582.192 208.332 582.299C208.834 582.407 209.289 582.561 209.694 582.761L209.196 583.815C208.854 583.659 208.478 583.525 208.068 583.413C207.663 583.295 207.223 583.237 206.75 583.237ZM215.483 588.525L212.7 593H211.242L214.238 588.298C213.847 588.176 213.481 588.002 213.139 587.778C212.802 587.548 212.529 587.233 212.319 586.833C212.114 586.433 212.011 585.92 212.011 585.295C212.011 584.318 212.343 583.574 213.007 583.061C213.676 582.548 214.67 582.292 215.988 582.292H218.925V593H217.68V588.525H215.483ZM217.68 583.354H216.032C215.441 583.354 214.941 583.422 214.531 583.559C214.125 583.696 213.818 583.911 213.608 584.204C213.398 584.497 213.293 584.88 213.293 585.354C213.293 586.032 213.518 586.555 213.967 586.921C214.416 587.282 215.102 587.463 216.025 587.463H217.68V583.354ZM235.374 593H234.129V587.954H228.504V593H227.259V582.292H228.504V586.855H234.129V582.292H235.374V593ZM248.355 587.631C248.355 588.457 248.25 589.208 248.041 589.887C247.831 590.561 247.518 591.142 247.103 591.63C246.693 592.114 246.183 592.487 245.572 592.751C244.962 593.015 244.254 593.146 243.448 593.146C242.618 593.146 241.893 593.015 241.273 592.751C240.658 592.487 240.145 592.111 239.735 591.623C239.33 591.135 239.024 590.551 238.819 589.873C238.619 589.194 238.519 588.442 238.519 587.617C238.519 586.523 238.7 585.563 239.061 584.738C239.422 583.913 239.969 583.271 240.702 582.812C241.439 582.353 242.362 582.124 243.47 582.124C244.53 582.124 245.421 582.351 246.144 582.805C246.871 583.259 247.42 583.898 247.792 584.724C248.167 585.544 248.355 586.513 248.355 587.631ZM239.83 587.631C239.83 588.54 239.959 589.326 240.218 589.99C240.477 590.654 240.873 591.167 241.405 591.528C241.942 591.889 242.623 592.07 243.448 592.07C244.278 592.07 244.957 591.889 245.484 591.528C246.017 591.167 246.41 590.654 246.664 589.99C246.917 589.326 247.044 588.54 247.044 587.631C247.044 586.25 246.754 585.17 246.173 584.394C245.597 583.613 244.696 583.222 243.47 583.222C242.64 583.222 241.957 583.4 241.419 583.757C240.882 584.113 240.482 584.621 240.218 585.28C239.959 585.935 239.83 586.718 239.83 587.631ZM251.493 582.292H254.525C255.863 582.292 256.869 582.492 257.543 582.893C258.217 583.293 258.554 583.974 258.554 584.936C258.554 585.351 258.473 585.725 258.312 586.057C258.156 586.384 257.926 586.655 257.624 586.87C257.321 587.084 256.947 587.233 256.503 587.316V587.39C256.972 587.463 257.387 587.597 257.748 587.792C258.109 587.988 258.393 588.261 258.598 588.613C258.803 588.964 258.905 589.411 258.905 589.953C258.905 590.612 258.751 591.169 258.444 591.623C258.141 592.077 257.711 592.421 257.155 592.656C256.598 592.885 255.939 593 255.177 593H251.493V582.292ZM252.738 586.884H254.789C255.722 586.884 256.366 586.73 256.723 586.423C257.084 586.115 257.265 585.666 257.265 585.075C257.265 584.465 257.05 584.025 256.62 583.757C256.195 583.488 255.517 583.354 254.584 583.354H252.738V586.884ZM252.738 587.932V591.938H254.965C255.917 591.938 256.591 591.752 256.986 591.381C257.382 591.005 257.58 590.5 257.58 589.865C257.58 589.46 257.489 589.113 257.309 588.825C257.133 588.537 256.845 588.317 256.444 588.166C256.049 588.01 255.519 587.932 254.855 587.932H252.738ZM267.902 593H261.94V582.292H267.902V583.391H263.186V586.855H267.631V587.939H263.186V591.901H267.902V593ZM271.04 582.292H272.205V588.481C272.205 588.715 272.202 588.972 272.197 589.25C272.192 589.523 272.185 589.792 272.175 590.056C272.166 590.319 272.153 590.559 272.139 590.773C272.129 590.988 272.119 591.154 272.109 591.271H272.168L278.13 582.292H279.5V593H278.335V586.884C278.335 586.625 278.34 586.352 278.35 586.064C278.359 585.771 278.369 585.488 278.379 585.214C278.394 584.941 278.408 584.697 278.423 584.482C278.438 584.262 278.447 584.094 278.452 583.977H278.386L272.417 593H271.04V582.292ZM278.174 578.981C278.13 579.475 278.005 579.887 277.8 580.219C277.6 580.551 277.305 580.803 276.914 580.974C276.523 581.14 276.023 581.223 275.413 581.223C274.783 581.223 274.275 581.142 273.889 580.981C273.508 580.815 273.225 580.566 273.04 580.234C272.859 579.902 272.751 579.484 272.717 578.981H273.86C273.914 579.519 274.058 579.885 274.292 580.08C274.526 580.275 274.907 580.373 275.435 580.373C275.903 580.373 276.272 580.271 276.541 580.065C276.809 579.86 276.97 579.499 277.024 578.981H278.174ZM295.704 593H283.172V582.292H284.417V591.887H288.804V582.292H290.049V591.887H294.444V582.292H295.704V593ZM299.42 582.292H300.584V588.481C300.584 588.715 300.582 588.972 300.577 589.25C300.572 589.523 300.565 589.792 300.555 590.056C300.545 590.319 300.533 590.559 300.519 590.773C300.509 590.988 300.499 591.154 300.489 591.271H300.548L306.51 582.292H307.879V593H306.715V586.884C306.715 586.625 306.72 586.352 306.729 586.064C306.739 585.771 306.749 585.488 306.759 585.214C306.773 584.941 306.788 584.697 306.803 584.482C306.817 584.262 306.827 584.094 306.832 583.977H306.766L300.797 593H299.42V582.292ZM316.261 593L312.665 583.522H312.606C312.626 583.723 312.643 583.967 312.658 584.255C312.672 584.543 312.685 584.858 312.694 585.2C312.704 585.537 312.709 585.881 312.709 586.232V593H311.552V582.292H313.397L316.789 591.198H316.84L320.282 582.292H322.113V593H320.883V586.145C320.883 585.827 320.888 585.51 320.897 585.192C320.907 584.87 320.919 584.567 320.934 584.284C320.949 583.996 320.963 583.747 320.978 583.537H320.919L317.279 593H316.261ZM325.808 582.292H326.972V588.481C326.972 588.715 326.97 588.972 326.965 589.25C326.96 589.523 326.953 589.792 326.943 590.056C326.933 590.319 326.921 590.559 326.906 590.773C326.896 590.988 326.887 591.154 326.877 591.271H326.936L332.897 582.292H334.267V593H333.103V586.884C333.103 586.625 333.107 586.352 333.117 586.064C333.127 585.771 333.137 585.488 333.146 585.214C333.161 584.941 333.176 584.697 333.19 584.482C333.205 584.262 333.215 584.094 333.22 583.977H333.154L327.185 593H325.808V582.292ZM88.7534 613H87.501V603.391H84.1318V602.292H92.1079V603.391H88.7534V613ZM100.438 613H94.4766V602.292H100.438V603.391H95.7217V606.855H100.167V607.939H95.7217V611.901H100.438V613ZM110.71 613H109.296L106.403 608.283L103.466 613H102.141L105.708 607.419L102.39 602.292H103.774L106.447 606.562L109.135 602.292H110.454L107.143 607.397L110.71 613ZM121.099 613H119.854V607.954H114.229V613H112.983V602.292H114.229V606.855H119.854V602.292H121.099V613ZM134.08 607.631C134.08 608.457 133.975 609.208 133.765 609.887C133.555 610.561 133.243 611.142 132.828 611.63C132.417 612.114 131.907 612.487 131.297 612.751C130.687 613.015 129.979 613.146 129.173 613.146C128.343 613.146 127.618 613.015 126.998 612.751C126.382 612.487 125.87 612.111 125.459 611.623C125.054 611.135 124.749 610.551 124.544 609.873C124.344 609.194 124.244 608.442 124.244 607.617C124.244 606.523 124.424 605.563 124.786 604.738C125.147 603.913 125.694 603.271 126.426 602.812C127.164 602.353 128.086 602.124 129.195 602.124C130.254 602.124 131.146 602.351 131.868 602.805C132.596 603.259 133.145 603.898 133.516 604.724C133.892 605.544 134.08 606.513 134.08 607.631ZM125.555 607.631C125.555 608.54 125.684 609.326 125.943 609.99C126.202 610.654 126.597 611.167 127.129 611.528C127.667 611.889 128.348 612.07 129.173 612.07C130.003 612.07 130.682 611.889 131.209 611.528C131.741 611.167 132.134 610.654 132.388 609.99C132.642 609.326 132.769 608.54 132.769 607.631C132.769 606.25 132.479 605.17 131.897 604.394C131.321 603.613 130.42 603.222 129.195 603.222C128.365 603.222 127.681 603.4 127.144 603.757C126.607 604.113 126.207 604.621 125.943 605.28C125.684 605.935 125.555 606.718 125.555 607.631ZM144.835 613H143.59V603.391H140.118C140.05 603.938 139.977 604.509 139.898 605.104C139.82 605.7 139.74 606.293 139.657 606.884C139.574 607.475 139.491 608.034 139.408 608.562C139.325 609.089 139.242 609.558 139.159 609.968C139.032 610.646 138.873 611.225 138.683 611.704C138.497 612.177 138.248 612.541 137.936 612.795C137.628 613.044 137.22 613.168 136.712 613.168C136.542 613.168 136.371 613.151 136.2 613.117C136.034 613.083 135.887 613.042 135.76 612.993V611.945C135.873 611.994 135.997 612.036 136.134 612.07C136.275 612.104 136.424 612.121 136.581 612.121C136.888 612.121 137.13 611.999 137.306 611.755C137.486 611.506 137.628 611.191 137.73 610.81C137.838 610.429 137.931 610.039 138.009 609.638C138.072 609.306 138.146 608.886 138.229 608.378C138.312 607.871 138.399 607.294 138.492 606.65C138.585 606 138.68 605.307 138.778 604.57C138.88 603.833 138.98 603.073 139.078 602.292H144.835V613ZM157.802 607.631C157.802 608.457 157.697 609.208 157.487 609.887C157.277 610.561 156.964 611.142 156.549 611.63C156.139 612.114 155.629 612.487 155.019 612.751C154.408 613.015 153.7 613.146 152.895 613.146C152.064 613.146 151.339 613.015 150.719 612.751C150.104 612.487 149.591 612.111 149.181 611.623C148.776 611.135 148.471 610.551 148.266 609.873C148.065 609.194 147.965 608.442 147.965 607.617C147.965 606.523 148.146 605.563 148.507 604.738C148.869 603.913 149.416 603.271 150.148 602.812C150.885 602.353 151.808 602.124 152.917 602.124C153.976 602.124 154.867 602.351 155.59 602.805C156.317 603.259 156.867 603.898 157.238 604.724C157.614 605.544 157.802 606.513 157.802 607.631ZM149.276 607.631C149.276 608.54 149.406 609.326 149.665 609.99C149.923 610.654 150.319 611.167 150.851 611.528C151.388 611.889 152.069 612.07 152.895 612.07C153.725 612.07 154.403 611.889 154.931 611.528C155.463 611.167 155.856 610.654 156.11 609.99C156.364 609.326 156.491 608.54 156.491 607.631C156.491 606.25 156.2 605.17 155.619 604.394C155.043 603.613 154.142 603.222 152.917 603.222C152.086 603.222 151.403 603.4 150.866 603.757C150.329 604.113 149.928 604.621 149.665 605.28C149.406 605.935 149.276 606.718 149.276 607.631ZM166.953 602.292V603.405H162.185V613H160.939V602.292H166.953ZM169.512 602.292H170.676V608.481C170.676 608.715 170.674 608.972 170.669 609.25C170.664 609.523 170.657 609.792 170.647 610.056C170.637 610.319 170.625 610.559 170.61 610.773C170.601 610.988 170.591 611.154 170.581 611.271H170.64L176.602 602.292H177.971V613H176.807V606.884C176.807 606.625 176.812 606.352 176.821 606.064C176.831 605.771 176.841 605.488 176.851 605.214C176.865 604.941 176.88 604.697 176.895 604.482C176.909 604.262 176.919 604.094 176.924 603.977H176.858L170.889 613H169.512V602.292ZM184.756 608.525L181.973 613H180.516L183.511 608.298C183.121 608.176 182.754 608.002 182.413 607.778C182.076 607.548 181.802 607.233 181.592 606.833C181.387 606.433 181.285 605.92 181.285 605.295C181.285 604.318 181.617 603.574 182.281 603.061C182.95 602.548 183.943 602.292 185.262 602.292H188.199V613H186.954V608.525H184.756ZM186.954 603.354H185.306C184.715 603.354 184.214 603.422 183.804 603.559C183.399 603.696 183.091 603.911 182.881 604.204C182.671 604.497 182.566 604.88 182.566 605.354C182.566 606.032 182.791 606.555 183.24 606.921C183.689 607.282 184.375 607.463 185.298 607.463H186.954V603.354ZM196.595 613L192.999 603.522H192.94C192.96 603.723 192.977 603.967 192.992 604.255C193.006 604.543 193.019 604.858 193.028 605.2C193.038 605.537 193.043 605.881 193.043 606.232V613H191.886V602.292H193.731L197.123 611.198H197.174L200.616 602.292H202.447V613H201.217V606.145C201.217 605.827 201.222 605.51 201.231 605.192C201.241 604.87 201.253 604.567 201.268 604.284C201.283 603.996 201.297 603.747 201.312 603.537H201.253L197.613 613H196.595ZM206.142 602.292H207.306V608.481C207.306 608.715 207.304 608.972 207.299 609.25C207.294 609.523 207.287 609.792 207.277 610.056C207.267 610.319 207.255 610.559 207.24 610.773C207.23 610.988 207.221 611.154 207.211 611.271H207.27L213.231 602.292H214.601V613H213.437V606.884C213.437 606.625 213.441 606.352 213.451 606.064C213.461 605.771 213.471 605.488 213.48 605.214C213.495 604.941 213.51 604.697 213.524 604.482C213.539 604.262 213.549 604.094 213.554 603.977H213.488L207.519 613H206.142V602.292ZM222.935 602.292H224.099V608.481C224.099 608.715 224.097 608.972 224.092 609.25C224.087 609.523 224.08 609.792 224.07 610.056C224.06 610.319 224.048 610.559 224.033 610.773C224.023 610.988 224.014 611.154 224.004 611.271H224.062L230.024 602.292H231.394V613H230.229V606.884C230.229 606.625 230.234 606.352 230.244 606.064C230.254 605.771 230.264 605.488 230.273 605.214C230.288 604.941 230.303 604.697 230.317 604.482C230.332 604.262 230.342 604.094 230.347 603.977H230.281L224.312 613H222.935V602.292ZM247.828 613H246.583V607.954H240.958V613H239.713V602.292H240.958V606.855H246.583V602.292H247.828V613ZM258.239 613L256.92 609.602H252.628L251.317 613H250.058L254.247 602.248H255.368L259.528 613H258.239ZM256.547 608.496L255.294 605.119C255.265 605.031 255.216 604.887 255.148 604.687C255.084 604.487 255.019 604.279 254.95 604.064C254.882 603.85 254.826 603.676 254.782 603.544C254.733 603.745 254.679 603.945 254.621 604.145C254.567 604.34 254.513 604.523 254.459 604.694C254.406 604.86 254.359 605.002 254.32 605.119L253.046 608.496H256.547ZM269.565 602.292L266.079 610.056C265.776 610.739 265.468 611.311 265.156 611.77C264.843 612.229 264.472 612.573 264.042 612.802C263.613 613.032 263.068 613.146 262.409 613.146C262.126 613.146 261.862 613.125 261.618 613.081C261.379 613.042 261.164 612.99 260.974 612.927V611.689C261.169 611.782 261.379 611.855 261.604 611.909C261.833 611.958 262.075 611.982 262.329 611.982C262.705 611.982 263.027 611.926 263.295 611.813C263.564 611.696 263.801 611.513 264.006 611.264C264.211 611.01 264.406 610.676 264.592 610.261L260.461 602.292H261.823L264.87 608.276C264.909 608.349 264.951 608.435 264.995 608.532C265.039 608.625 265.083 608.723 265.126 608.825C265.17 608.923 265.209 609.021 265.244 609.118H265.295C265.324 609.045 265.356 608.959 265.39 608.862C265.429 608.764 265.468 608.667 265.507 608.569C265.546 608.471 265.581 608.388 265.61 608.32L268.239 602.292H269.565ZM279.463 613H277.954L273.032 607.565V613H271.787V602.292H273.032V607.478L277.83 602.292H279.258L274.519 607.492L279.463 613ZM288.409 613L287.09 609.602H282.798L281.487 613H280.228L284.417 602.248H285.538L289.698 613H288.409ZM286.717 608.496L285.464 605.119C285.435 605.031 285.386 604.887 285.318 604.687C285.254 604.487 285.188 604.279 285.12 604.064C285.052 603.85 284.996 603.676 284.952 603.544C284.903 603.745 284.849 603.945 284.791 604.145C284.737 604.34 284.683 604.523 284.629 604.694C284.576 604.86 284.529 605.002 284.49 605.119L283.216 608.496H286.717ZM296.644 613L293.048 603.522H292.989C293.009 603.723 293.026 603.967 293.041 604.255C293.055 604.543 293.067 604.858 293.077 605.2C293.087 605.537 293.092 605.881 293.092 606.232V613H291.935V602.292H293.78L297.171 611.198H297.223L300.665 602.292H302.496V613H301.266V606.145C301.266 605.827 301.271 605.51 301.28 605.192C301.29 604.87 301.302 604.567 301.317 604.284C301.332 603.996 301.346 603.747 301.361 603.537H301.302L297.662 613H296.644ZM306.19 602.292H307.355V608.481C307.355 608.715 307.353 608.972 307.348 609.25C307.343 609.523 307.335 609.792 307.326 610.056C307.316 610.319 307.304 610.559 307.289 610.773C307.279 610.988 307.27 611.154 307.26 611.271H307.318L313.28 602.292H314.65V613H313.485V606.884C313.485 606.625 313.49 606.352 313.5 606.064C313.51 605.771 313.52 605.488 313.529 605.214C313.544 604.941 313.559 604.697 313.573 604.482C313.588 604.262 313.598 604.094 313.603 603.977H313.537L307.567 613H306.19V602.292ZM318.967 610.026V609.646C318.967 609.255 319.003 608.92 319.077 608.642C319.15 608.359 319.277 608.095 319.458 607.851C319.643 607.607 319.899 607.348 320.227 607.075C320.607 606.757 320.908 606.489 321.127 606.269C321.352 606.044 321.513 605.82 321.611 605.595C321.708 605.371 321.757 605.1 321.757 604.782C321.757 604.274 321.594 603.886 321.267 603.618C320.939 603.344 320.478 603.208 319.882 603.208C319.399 603.208 318.969 603.269 318.593 603.391C318.217 603.513 317.856 603.659 317.509 603.83L317.084 602.849C317.485 602.639 317.919 602.468 318.388 602.336C318.857 602.204 319.379 602.138 319.956 602.138C320.898 602.138 321.628 602.373 322.146 602.841C322.663 603.305 322.922 603.945 322.922 604.76C322.922 605.214 322.849 605.603 322.702 605.925C322.556 606.242 322.348 606.535 322.08 606.804C321.811 607.067 321.494 607.348 321.127 607.646C320.805 607.919 320.559 608.161 320.388 608.371C320.217 608.576 320.1 608.789 320.036 609.008C319.973 609.223 319.941 609.482 319.941 609.785V610.026H318.967ZM318.645 612.238C318.645 611.896 318.725 611.655 318.886 611.513C319.047 611.367 319.255 611.293 319.509 611.293C319.748 611.293 319.951 611.367 320.117 611.513C320.288 611.655 320.373 611.896 320.373 612.238C320.373 612.575 320.288 612.822 320.117 612.978C319.951 613.129 319.748 613.205 319.509 613.205C319.255 613.205 319.047 613.129 318.886 612.978C318.725 612.822 318.645 612.575 318.645 612.238Z" fill="black" fill-opacity="0.6"/>
<path d="M96.558 519L90.7994 500.235H90.6522C90.674 500.683 90.7067 501.359 90.7503 502.264C90.8049 503.158 90.8539 504.113 90.8976 505.127C90.9412 506.141 90.963 507.057 90.963 507.875V519H86.4314V495.082H93.3352L98.9956 513.372H99.0937L105.098 495.082H112.002V519H107.274V507.679C107.274 506.927 107.284 506.06 107.306 505.078C107.339 504.096 107.377 503.164 107.421 502.28C107.464 501.386 107.497 500.715 107.519 500.268H107.372L101.204 519H96.558ZM133.488 519H119.713V495.082H133.488V499.238H124.785V504.489H132.883V508.644H124.785V514.812H133.488V519ZM150.296 519L144.538 500.235H144.39C144.412 500.683 144.445 501.359 144.488 502.264C144.543 503.158 144.592 504.113 144.636 505.127C144.679 506.141 144.701 507.057 144.701 507.875V519H140.17V495.082H147.073L152.734 513.372H152.832L158.836 495.082H165.74V519H161.012V507.679C161.012 506.927 161.023 506.06 161.044 505.078C161.077 504.096 161.115 503.164 161.159 502.28C161.203 501.386 161.235 500.715 161.257 500.268H161.11L154.942 519H150.296ZM187.57 512.358C187.57 513.776 187.226 515.008 186.539 516.055C185.852 517.102 184.849 517.909 183.529 518.476C182.22 519.044 180.628 519.327 178.752 519.327C177.923 519.327 177.111 519.273 176.314 519.164C175.529 519.055 174.771 518.896 174.041 518.689C173.321 518.471 172.634 518.204 171.979 517.888V513.176C173.113 513.678 174.291 514.13 175.513 514.534C176.734 514.937 177.945 515.139 179.145 515.139C179.974 515.139 180.639 515.03 181.141 514.812C181.653 514.594 182.024 514.294 182.253 513.912C182.482 513.53 182.597 513.094 182.597 512.603C182.597 512.004 182.395 511.491 181.991 511.066C181.588 510.64 181.032 510.242 180.323 509.871C179.625 509.501 178.834 509.102 177.95 508.677C177.394 508.415 176.789 508.099 176.135 507.728C175.48 507.346 174.858 506.883 174.27 506.338C173.681 505.792 173.195 505.132 172.814 504.358C172.443 503.573 172.257 502.635 172.257 501.544C172.257 500.116 172.584 498.894 173.239 497.88C173.893 496.865 174.826 496.091 176.036 495.557C177.258 495.011 178.698 494.739 180.355 494.739C181.599 494.739 182.782 494.886 183.905 495.18C185.04 495.464 186.223 495.878 187.455 496.424L185.819 500.366C184.718 499.919 183.731 499.576 182.858 499.336C181.986 499.085 181.097 498.959 180.192 498.959C179.559 498.959 179.019 499.063 178.572 499.27C178.125 499.467 177.787 499.75 177.558 500.121C177.329 500.481 177.214 500.901 177.214 501.381C177.214 501.948 177.378 502.428 177.705 502.82C178.043 503.202 178.545 503.573 179.21 503.933C179.886 504.293 180.726 504.713 181.73 505.192C182.951 505.771 183.993 506.376 184.854 507.008C185.727 507.63 186.397 508.366 186.866 509.217C187.335 510.057 187.57 511.104 187.57 512.358ZM192.484 516.661C192.484 515.635 192.762 514.916 193.319 514.501C193.886 514.087 194.567 513.879 195.364 513.879C196.138 513.879 196.803 514.087 197.36 514.501C197.927 514.916 198.21 515.635 198.21 516.661C198.21 517.642 197.927 518.351 197.36 518.787C196.803 519.224 196.138 519.442 195.364 519.442C194.567 519.442 193.886 519.224 193.319 518.787C192.762 518.351 192.484 517.642 192.484 516.661ZM212.45 495.082C215.536 495.082 217.788 495.748 219.206 497.078C220.624 498.398 221.333 500.219 221.333 502.542C221.333 503.589 221.175 504.593 220.859 505.552C220.542 506.501 220.024 507.346 219.304 508.088C218.595 508.83 217.647 509.419 216.458 509.855C215.269 510.28 213.802 510.493 212.057 510.493H209.881V519H204.81V495.082H212.45ZM212.188 499.238H209.881V506.338H211.55C212.499 506.338 213.322 506.212 214.02 505.961C214.718 505.711 215.258 505.318 215.64 504.783C216.022 504.249 216.212 503.562 216.212 502.722C216.212 501.544 215.885 500.672 215.231 500.105C214.576 499.527 213.562 499.238 212.188 499.238ZM241.298 519H227.523V495.082H241.298V499.238H232.595V504.489H240.693V508.644H232.595V514.812H241.298V519ZM257.206 519H252.135V499.303H245.64V495.082H263.701V499.303H257.206V519ZM276.026 495.082C278.197 495.082 279.985 495.344 281.392 495.867C282.81 496.391 283.863 497.182 284.55 498.24C285.237 499.298 285.58 500.634 285.58 502.248C285.58 503.338 285.373 504.293 284.959 505.111C284.544 505.929 283.999 506.621 283.323 507.188C282.647 507.755 281.916 508.219 281.131 508.579L288.165 519H282.538L276.828 509.822H274.129V519H269.057V495.082H276.026ZM275.667 499.238H274.129V505.7H275.765C277.444 505.7 278.644 505.422 279.364 504.865C280.095 504.298 280.46 503.469 280.46 502.379C280.46 501.244 280.067 500.437 279.282 499.957C278.508 499.478 277.303 499.238 275.667 499.238ZM306.969 512.358C306.969 513.776 306.626 515.008 305.938 516.055C305.251 517.102 304.248 517.909 302.928 518.476C301.619 519.044 300.027 519.327 298.151 519.327C297.322 519.327 296.51 519.273 295.714 519.164C294.928 519.055 294.17 518.896 293.44 518.689C292.72 518.471 292.033 518.204 291.378 517.888V513.176C292.513 513.678 293.691 514.13 294.912 514.534C296.134 514.937 297.344 515.139 298.544 515.139C299.373 515.139 300.038 515.03 300.54 514.812C301.052 514.594 301.423 514.294 301.652 513.912C301.881 513.53 301.996 513.094 301.996 512.603C301.996 512.004 301.794 511.491 301.39 511.066C300.987 510.64 300.431 510.242 299.722 509.871C299.024 509.501 298.233 509.102 297.35 508.677C296.793 508.415 296.188 508.099 295.534 507.728C294.879 507.346 294.258 506.883 293.669 506.338C293.08 505.792 292.594 505.132 292.213 504.358C291.842 503.573 291.656 502.635 291.656 501.544C291.656 500.116 291.984 498.894 292.638 497.88C293.292 496.865 294.225 496.091 295.436 495.557C296.657 495.011 298.097 494.739 299.754 494.739C300.998 494.739 302.181 494.886 303.305 495.18C304.439 495.464 305.622 495.878 306.855 496.424L305.219 500.366C304.117 499.919 303.13 499.576 302.258 499.336C301.385 499.085 300.496 498.959 299.591 498.959C298.958 498.959 298.418 499.063 297.971 499.27C297.524 499.467 297.186 499.75 296.957 500.121C296.728 500.481 296.613 500.901 296.613 501.381C296.613 501.948 296.777 502.428 297.104 502.82C297.442 503.202 297.944 503.573 298.609 503.933C299.286 504.293 300.125 504.713 301.129 505.192C302.35 505.771 303.392 506.376 304.253 507.008C305.126 507.63 305.797 508.366 306.266 509.217C306.735 510.057 306.969 511.104 306.969 512.358ZM332.448 495.082V510.558C332.448 512.205 332.082 513.694 331.351 515.025C330.632 516.344 329.536 517.391 328.063 518.166C326.602 518.94 324.759 519.327 322.534 519.327C319.371 519.327 316.96 518.52 315.303 516.906C313.645 515.292 312.816 513.154 312.816 510.493V495.082H317.871V509.724C317.871 511.698 318.275 513.083 319.082 513.879C319.889 514.676 321.083 515.074 322.665 515.074C323.777 515.074 324.677 514.883 325.364 514.501C326.062 514.119 326.574 513.53 326.902 512.734C327.229 511.938 327.392 510.924 327.392 509.691V495.082H332.448ZM338.883 516.661C338.883 515.635 339.162 514.916 339.718 514.501C340.285 514.087 340.967 513.879 341.763 513.879C342.537 513.879 343.202 514.087 343.759 514.501C344.326 514.916 344.609 515.635 344.609 516.661C344.609 517.642 344.326 518.351 343.759 518.787C343.202 519.224 342.537 519.442 341.763 519.442C340.967 519.442 340.285 519.224 339.718 518.787C339.162 518.351 338.883 517.642 338.883 516.661ZM358.178 495.082C360.348 495.082 362.137 495.344 363.544 495.867C364.962 496.391 366.014 497.182 366.701 498.24C367.388 499.298 367.732 500.634 367.732 502.248C367.732 503.338 367.525 504.293 367.11 505.111C366.696 505.929 366.151 506.621 365.474 507.188C364.798 507.755 364.067 508.219 363.282 508.579L370.317 519H364.689L358.98 509.822H356.28V519H351.209V495.082H358.178ZM357.818 499.238H356.28V505.7H357.916C359.596 505.7 360.796 505.422 361.515 504.865C362.246 504.298 362.611 503.469 362.611 502.379C362.611 501.244 362.219 500.437 361.434 499.957C360.659 499.478 359.454 499.238 357.818 499.238ZM394.47 495.082V510.558C394.47 512.205 394.105 513.694 393.374 515.025C392.654 516.344 391.558 517.391 390.086 518.166C388.624 518.94 386.781 519.327 384.556 519.327C381.393 519.327 378.983 518.52 377.325 516.906C375.668 515.292 374.839 513.154 374.839 510.493V495.082H379.894V509.724C379.894 511.698 380.297 513.083 381.104 513.879C381.911 514.676 383.106 515.074 384.687 515.074C385.8 515.074 386.699 514.883 387.386 514.501C388.084 514.119 388.597 513.53 388.924 512.734C389.251 511.938 389.415 510.924 389.415 509.691V495.082H394.47ZM405.798 511.066H401.806L400.972 495.082H406.632L405.798 511.066ZM400.906 516.661C400.906 515.635 401.184 514.916 401.74 514.501C402.308 514.087 402.989 513.879 403.785 513.879C404.56 513.879 405.225 514.087 405.781 514.501C406.348 514.916 406.632 515.635 406.632 516.661C406.632 517.642 406.348 518.351 405.781 518.787C405.225 519.224 404.56 519.442 403.785 519.442C402.989 519.442 402.308 519.224 401.74 518.787C401.184 518.351 400.906 517.642 400.906 516.661Z" fill="black" fill-opacity="0.75"/>
<circle cx="224.5" cy="699.5" r="7.5" fill="#6A8EA6"/>
<circle cx="249.5" cy="699.5" r="7.5" fill="#98BAD2"/>
<circle cx="274.5" cy="699.5" r="7.5" fill="#98BAD2"/>
</svg>
