<svg width="11" height="11" viewBox="0 0 11 11" fill="none" xmlns="http://www.w3.org/2000/svg">
<g clip-path="url(#clip0_1537_5089)">
<path d="M1.67578 2.94995H2.52578H9.32578" stroke="#52282C" stroke-linecap="round" stroke-linejoin="round"/>
<path d="M8.47539 2.95V8.9C8.47539 9.12543 8.38584 9.34163 8.22643 9.50104C8.06703 9.66045 7.85083 9.75 7.62539 9.75H3.37539C3.14996 9.75 2.93376 9.66045 2.77435 9.50104C2.61494 9.34163 2.52539 9.12543 2.52539 8.9V2.95M3.80039 2.95V2.1C3.80039 1.87457 3.88994 1.65837 4.04935 1.49896C4.20876 1.33955 4.42496 1.25 4.65039 1.25H6.35039C6.57583 1.25 6.79203 1.33955 6.95143 1.49896C7.11084 1.65837 7.20039 1.87457 7.20039 2.1V2.95" stroke="#52282C" stroke-linecap="round" stroke-linejoin="round"/>
<path d="M4.65039 5.07495V7.62495" stroke="#52282C" stroke-linecap="round" stroke-linejoin="round"/>
<path d="M6.35059 5.07495V7.62495" stroke="#52282C" stroke-linecap="round" stroke-linejoin="round"/>
</g>
<defs>
<clipPath id="clip0_1537_5089">
<rect width="10.2" height="10.2" fill="white" transform="translate(0.400391 0.399902)"/>
</clipPath>
</defs>
</svg>
